<?xml version="1.0" encoding="UTF-8" standalone="no"?>
<svg
   xmlns:dc="http://purl.org/dc/elements/1.1/"
   xmlns:cc="http://creativecommons.org/ns#"
   xmlns:rdf="http://www.w3.org/1999/02/22-rdf-syntax-ns#"
   xmlns:svg="http://www.w3.org/2000/svg"
   xmlns="http://www.w3.org/2000/svg"
   xmlns:xlink="http://www.w3.org/1999/xlink"
   xmlns:sodipodi="http://sodipodi.sourceforge.net/DTD/sodipodi-0.dtd"
   xmlns:inkscape="http://www.inkscape.org/namespaces/inkscape"
   width="229.00253mm"
   height="228.77374mm"
   viewBox="0 0 229.00253 228.77374"
   version="1.1"
   id="svg8"
   inkscape:version="1.0.2 (e86c870879, 2021-01-15, custom)"
   sodipodi:docname="deco_patterns.svg">
  <defs
     id="defs2">
    <pattern
       inkscape:collect="always"
       xlink:href="#pattern889"
       id="pattern1078"
       patternTransform="matrix(0.4575475,0,0,-0.4575475,-10.954907,197.32424)" />
    <pattern
       inkscape:collect="always"
       xlink:href="#pattern925"
       id="pattern1073"
       patternTransform="matrix(0.4575475,0,0,-0.4575475,-10.954907,171.93035)" />
    <pattern
       inkscape:collect="always"
       xlink:href="#pattern981"
       id="pattern1066"
       patternTransform="matrix(0.4575475,0,0,-0.4575475,-10.726126,216.86152)" />
    <clipPath
       clipPathUnits="userSpaceOnUse"
       id="clipPath849">
      <path
         d="M 0,838 H 930 V 0 H 0 Z"
         id="path847" />
    </clipPath>
    <pattern
       patternTransform="matrix(10,0,0,10,0,811)"
       patternUnits="userSpaceOnUse"
       x="0"
       y="0"
       width="93"
       height="83.7838"
       id="pattern889">
      <g
         transform="scale(0.1)"
         id="g887">
        <g
           id="g885">
          <g
             clip-path="url(#clipPath849)"
             id="g883">
            <path
               d="M 83.5898,589.648 C 104.59,512.918 124.492,463.379 129.867,450.531 186.48,469.984 238.66,501.387 283.93,542.504 270.164,556.762 237.035,592.727 199.293,645.238 165.066,620.555 126.609,601 83.5898,589.648 Z m 127.6952,64.575 c 37.461,-52.153 70.289,-87.707 83.57,-101.446 43.024,41.614 79.254,92.227 106.422,149.731 -32.144,13.129 -63.781,30.371 -94.406,51.129 -26.945,-36.184 -58.691,-70.703 -95.586,-99.414 z M 171.957,347.352 c 25,-33.739 54.207,-66.039 87.949,-93.176 27.688,40.062 57.129,89.14 82.567,145.722 47.07,104.711 76.648,221.04 93.886,305.602 C 382.875,560.641 286.211,430.066 171.957,347.352 Z m 184.195,46.394 c -25.976,-57.777 -56.074,-107.875 -84.375,-148.742 31.977,-23.801 67.84,-42.805 107.786,-54.258 13.398,51.777 26.753,114.149 36.593,184.758 15.231,109.285 25.528,225.703 31.914,312.668 C 430.297,604.234 401.105,493.746 356.152,393.746 Z M 462.055,674.035 C 455.594,588.41 445.547,477.727 431.012,373.434 421.086,302.227 407.605,239.281 394.066,186.973 c 22.407,-5.25 46.008,-8.196 70.934,-8.196 22.879,0 44.645,2.438 65.387,6.856 -13.657,52.566 -27.278,115.992 -37.285,187.801 -14.539,104.293 -24.582,214.976 -31.047,300.601 z m 13.984,14.117 c 6.395,-86.953 16.688,-203.363 31.914,-312.648 9.945,-71.371 23.469,-134.32 37.004,-186.399 40.539,10.731 76.879,29.25 109.313,52.649 -29.168,42.258 -60.082,93.652 -86.309,151.992 -44.953,100 -74.148,210.469 -91.922,294.406 z m 10.965,21.047 c 17.125,-84.859 46.887,-203.09 94.637,-309.301 25.726,-57.226 56.023,-107.656 84.621,-149.144 34.914,27.273 65.062,60.074 90.765,94.504 -116.172,84.469 -215.914,218.445 -270.023,363.941 z m 22.883,-17.57 c 54.672,-134.043 148.109,-256.074 255.926,-334.32 16.203,22.812 30.523,46.105 43.046,68.769 -128.32,38.266 -236.433,134.567 -298.972,265.551 z m 15.605,13.805 c 26.199,-56.391 61.039,-106.27 102.477,-147.602 11.191,11.098 44.797,45.887 83.765,99.832 -35.711,28.586 -66.48,62.625 -92.726,98.125 -30.215,-20.363 -61.535,-37.324 -93.516,-50.355 z M 638.773,547.426 c 44.852,-42.024 96.754,-74.399 153.239,-94.789 6.461,15.664 25.687,64.64 45.847,138.621 -42.457,12.078 -80.468,32.14 -114.257,57.254 -39.106,-54.074 -72.934,-89.258 -84.829,-101.086 z M 828.676,420.66 c -13.403,-24.59 -28.828,-49.976 -46.473,-74.844 29.981,-20.246 60.938,-37.035 92.387,-49.769 15.89,35.09 28.547,72.637 37.312,112.316 -28.41,1.391 -56.211,5.61 -83.226,12.297 z m 39.57,-138.23 c -32.285,13.148 -64.066,30.449 -94.828,51.3 -26.945,-36.187 -58.691,-70.71 -95.582,-99.417 36.266,-50.493 68.219,-85.461 82.269,-100.098 43.5,40.918 80.309,90.992 108.141,148.215 z M 749.066,124.055 c -14.558,15.199 -46.765,50.55 -83.222,101.273 C 631.617,200.645 593.156,181.086 550.133,169.734 569.227,99.9609 587.406,52.707 594.602,35.0391 651.238,53.543 703.551,83.8945 749.066,124.055 Z M 580.242,30.5547 c -7.703,19.0508 -25.781,66.5391 -44.691,135.7033 -22.336,-4.805 -45.813,-7.481 -70.551,-7.481 -26.781,0 -52.098,3.161 -76.078,8.801 C 370.406,99.6133 352.617,52.3516 344.52,32.168 383.02,20.5508 423.406,14.332 465,14.332 c 39.703,0 78.328,5.6133 115.242,16.2227 z M 374.41,171.348 c -42.453,12.078 -80.469,32.144 -114.254,57.254 -38.152,-52.75 -71.304,-87.551 -83.949,-100.2 45.238,-41.0309 97.348,-72.3786 153.973,-91.7028 7.668,19.0117 25.55,66.1058 44.23,134.6488 z M 165.211,138.617 c 11.855,11.821 44.902,46.305 83.078,99.145 -35.711,28.582 -66.476,62.625 -92.723,98.121 C 124.867,315.191 93.0234,298.016 60.5117,284.906 87.4922,228.699 123.109,179.305 165.211,138.617 Z m -1.992,220.832 C 261,430.137 345.719,536.816 400.523,657.5 336.676,544.66 237.266,461.906 121.238,426.684 c 12.254,-22.137 26.219,-44.891 41.981,-67.235 z M 54.2656,298.563 c 31.6446,12.695 62.6444,29.363 92.5474,49.449 -17.165,24.347 -32.239,49.144 -45.352,73.164 -27.0626,-6.844 -54.918,-11.203 -83.3907,-12.711 8.5586,-38.77 20.8281,-75.504 36.1953,-109.902 z M 26.5469,793.336 c -2.0508,14.734 -4.0078,29.602 -5.8828,44.504 l 15.1093,0 c 1.7969,-14.211 3.6719,-28.379 5.6289,-42.434 9.9454,-71.34 23.4727,-134.293 37.0118,-186.386 40.5349,10.73 76.8709,29.25 109.3049,52.644 -29.168,42.258 -60.086,93.656 -86.313,151.992 -3.5935,7.996 -7.0505,16.074 -10.4451,24.184 l 16.2621,0 c 2.574,-6.039 5.179,-12.059 7.867,-18.027 25.723,-57.227 56.019,-107.657 84.621,-149.149 34.914,27.274 65.062,60.074 90.766,94.504 -29.27,21.281 -57.485,45.715 -84.2,72.672 l 21.258,0 c 22.969,-22.231 46.942,-42.637 71.727,-60.621 14.273,20.097 26.984,40.539 38.39,60.621 l 22.911,0 c -13.055,-23.746 -27.911,-48.156 -44.911,-72.113 29.821,-20.137 60.602,-36.852 91.871,-49.563 15.997,36.422 28.438,75.406 36.711,116.496 -16.464,0.778 -32.699,2.594 -48.718,5.18 l 138.703,0 c -16.52,-2.656 -33.258,-4.492 -50.246,-5.223 8.05,-39.972 20.047,-77.926 35.398,-113.476 31.07,12.609 61.504,29.043 90.887,48.773 -16.403,23.266 -30.813,46.91 -43.512,69.926 l 22.934,0 c 11.035,-19.363 23.285,-39.067 36.984,-58.485 24.07,17.403 47.313,37.047 69.543,58.485 l 21.281,0 C 691.496,811.664 664,787.961 635.402,767.258 c 25,-33.738 54.207,-66.035 87.953,-93.172 27.688,40.062 57.125,89.144 82.563,145.727 2.684,5.968 5.297,11.988 7.867,18.027 l 16.258,0 c -3.395,-8.11 -6.852,-16.188 -10.441,-24.184 -25.977,-57.773 -56.079,-107.875 -84.375,-148.746 31.972,-23.797 67.839,-42.801 107.785,-54.254 13.398,51.778 26.75,114.149 36.593,184.75 1.958,14.055 3.833,28.223 5.629,42.434 l 15.11,0 c -1.875,-14.902 -3.832,-29.77 -5.887,-44.504 -9.922,-71.199 -23.398,-134.145 -36.941,-186.453 22.406,-5.25 46.007,-8.195 70.929,-8.195 0.528,0 1.032,0.039 1.555,0.042 l 0,-20 c -0.523,-0.003 -1.027,-0.042 -1.555,-0.042 -26.777,0 -52.093,3.16 -76.074,8.8 -19.973,-73.304 -39.109,-122.558 -46.137,-139.695 37.727,-12.113 77.332,-18.98 118.121,-19.848 l 5.083,-0.105 0.562,0.012 0,-227.973 c -1.656,19.617 -3.156,38.484 -4.496,56.226 C 919.953,182.578 911.75,90.5703 900.344,0 L 885.23,0 c 12.18,96.3047 20.719,194.449 26.29,270.23 C 895.168,192.996 869.109,93.3281 830.043,0 l -16.258,0 c 42.528,99.8555 69.77,207.836 86.024,287.578 C 859.711,178.973 795.344,78.3984 717.484,0 L 696.203,0 C 756.539,58.1758 809.223,129.945 849.184,208.867 784.016,111.238 690.68,40.9375 583.586,10.7656 585.547,7.20313 587.633,3.59375 589.68,0 l -22.926,0 c -1.035,1.875 -2.145,3.77734 -3.156,5.64453 C 553.898,3.39844 544.07,1.58984 534.18,0 L 395.555,0 C 384.934,1.71094 374.387,3.69922 363.988,6.16797 362.891,4.12891 361.688,2.05078 360.559,0 l -22.911,0 c 2.165,3.80469 4.36,7.62109 6.422,11.3945 C 213.574,48.9336 103.816,146.254 40.8555,279.797 82.8594,174.258 149.066,75.9336 227.535,0 L 206.277,0 C 126.949,80.0469 60.9258,182.43 20.4531,291.27 36.6133,211.18 64.0508,101.379 107.223,0 L 90.9609,0 C 51.8984,93.3281 25.8398,192.996 9.48828,270.223 15.0586,194.445 23.5938,96.3047 35.7734,0 L 20.6641,0 C 12.0078,68.7148 5.20313,138.207 0,199.879 l 0,227.973 5.59375,0.14 C 43.4688,428.961 80.2969,435.16 115.563,445.883 109.352,460.844 89.6719,510.559 69,586.172 47.1367,581.469 24.1602,578.84 0,578.73 l 0,20 c 22.3047,0.11 43.5664,2.5 63.8359,6.813 -13.6562,52.57 -27.2773,115.992 -37.289,187.793"
               style="fill:#c7a454;fill-opacity:1;fill-rule:nonzero;stroke:none"
               id="path851" />
            <path
               d="m 850.426,349.148 c 10.871,0 19.679,9.204 19.679,20.555 0,11.356 -8.808,20.559 -19.679,20.559 -10.863,0 -19.676,-9.203 -19.676,-20.559 0,-11.351 8.813,-20.555 19.676,-20.555"
               style="fill:#c7a454;fill-opacity:1;fill-rule:nonzero;stroke:none"
               id="path853" />
            <path
               d="m 752.539,246.848 c 0,-12.11 9.395,-21.926 20.988,-21.926 11.594,0 20.989,9.816 20.989,21.926 0,12.109 -9.395,21.925 -20.989,21.925 -11.593,0 -20.988,-9.816 -20.988,-21.925"
               style="fill:#c7a454;fill-opacity:1;fill-rule:nonzero;stroke:none"
               id="path855" />
            <path
               d="m 636.887,155.727 c -11.594,0 -20.992,-9.817 -20.992,-21.926 0,-12.11 9.398,-21.926 20.992,-21.926 11.593,0 20.988,9.816 20.988,21.926 0,12.109 -9.395,21.926 -20.988,21.926"
               style="fill:#c7a454;fill-opacity:1;fill-rule:nonzero;stroke:none"
               id="path857" />
            <path
               d="m 456.875,109.059 c -11.594,0 -20.988,-9.8168 -20.988,-21.9262 0,-12.1094 9.394,-21.9258 20.988,-21.9258 11.594,0 20.992,9.8164 20.992,21.9258 0,12.1094 -9.398,21.9262 -20.992,21.9262"
               style="fill:#c7a454;fill-opacity:1;fill-rule:nonzero;stroke:none"
               id="path859" />
            <path
               d="m 75.9609,388.73 c -10.8671,0 -19.6757,-9.203 -19.6757,-20.554 0,-11.352 8.8086,-20.555 19.6757,-20.555 10.8672,0 19.6758,9.203 19.6758,20.555 0,11.351 -8.8086,20.554 -19.6758,20.554"
               style="fill:#c7a454;fill-opacity:1;fill-rule:nonzero;stroke:none"
               id="path861" />
            <path
               d="m 149.242,271.969 c -11.59,0 -20.988,-9.817 -20.988,-21.926 0,-12.109 9.398,-21.926 20.988,-21.926 11.594,0 20.988,9.817 20.988,21.926 0,12.109 -9.394,21.926 -20.988,21.926"
               style="fill:#c7a454;fill-opacity:1;fill-rule:nonzero;stroke:none"
               id="path863" />
            <path
               d="m 279.523,155.727 c -11.593,0 -20.992,-9.817 -20.992,-21.926 0,-12.11 9.399,-21.926 20.992,-21.926 11.59,0 20.989,9.816 20.989,21.926 0,12.109 -9.399,21.926 -20.989,21.926"
               style="fill:#c7a454;fill-opacity:1;fill-rule:nonzero;stroke:none"
               id="path865" />
            <path
               d="m 925.844,528.371 c -11.594,0 -20.992,-9.816 -20.992,-21.926 0,-12.109 9.398,-21.925 20.992,-21.925 11.59,0 20.988,9.816 20.988,21.925 0,12.11 -9.398,21.926 -20.988,21.926"
               style="fill:#c7a454;fill-opacity:1;fill-rule:nonzero;stroke:none"
               id="path867" />
            <path
               d="m 389.738,769.84 c 10.867,0 19.676,9.203 19.676,20.555 0,11.351 -8.809,20.554 -19.676,20.554 -10.867,0 -19.675,-9.203 -19.675,-20.554 0,-11.352 8.808,-20.555 19.675,-20.555"
               style="fill:#c7a454;fill-opacity:1;fill-rule:nonzero;stroke:none"
               id="path869" />
            <path
               d="m 291.848,667.539 c 0,-12.109 9.398,-21.926 20.992,-21.926 11.59,0 20.988,9.817 20.988,21.926 0,12.109 -9.398,21.926 -20.988,21.926 -11.594,0 -20.992,-9.817 -20.992,-21.926"
               style="fill:#c7a454;fill-opacity:1;fill-rule:nonzero;stroke:none"
               id="path871" />
            <path
               d="m 176.195,576.418 c -11.593,0 -20.988,-9.816 -20.988,-21.926 0,-12.109 9.395,-21.926 20.988,-21.926 11.594,0 20.993,9.817 20.993,21.926 0,12.11 -9.399,21.926 -20.993,21.926"
               style="fill:#c7a454;fill-opacity:1;fill-rule:nonzero;stroke:none"
               id="path873" />
            <path
               d="m 544.926,808.039 c -10.867,0 -19.676,-9.203 -19.676,-20.555 0,-11.351 8.809,-20.554 19.676,-20.554 10.867,0 19.679,9.203 19.679,20.554 0,11.352 -8.812,20.555 -19.679,20.555"
               style="fill:#c7a454;fill-opacity:1;fill-rule:nonzero;stroke:none"
               id="path875" />
            <path
               d="m 618.211,691.277 c -11.594,0 -20.992,-9.816 -20.992,-21.925 0,-12.11 9.398,-21.922 20.992,-21.922 11.59,0 20.984,9.812 20.984,21.922 0,12.109 -9.394,21.925 -20.984,21.925"
               style="fill:#c7a454;fill-opacity:1;fill-rule:nonzero;stroke:none"
               id="path877" />
            <path
               d="m 748.488,575.035 c -11.593,0 -20.988,-9.816 -20.988,-21.922 0,-12.109 9.395,-21.925 20.988,-21.925 11.59,0 20.989,9.816 20.989,21.925 0,12.106 -9.399,21.922 -20.989,21.922"
               style="fill:#c7a454;fill-opacity:1;fill-rule:nonzero;stroke:none"
               id="path879" />
            <path
               d="m -4.16016,528.371 c -11.58984,0 -20.98824,-9.816 -20.98824,-21.926 0,-12.109 9.3984,-21.925 20.98824,-21.925 11.59375,0 20.99216,9.816 20.99216,21.925 0,12.11 -9.39841,21.926 -20.99216,21.926"
               style="fill:#c7a454;fill-opacity:1;fill-rule:nonzero;stroke:none"
               id="path881" />
          </g>
        </g>
      </g>
    </pattern>
    <clipPath
       clipPathUnits="userSpaceOnUse"
       id="clipPath899">
      <path
         d="M 0,1818 H 1272 V 0 H 0 Z"
         id="path897" />
    </clipPath>
    <pattern
       patternTransform="matrix(10,0,0,10,0,1366)"
       patternUnits="userSpaceOnUse"
       x="0"
       y="0"
       width="127.2"
       height="181.714"
       id="pattern925">
      <g
         transform="scale(0.1)"
         id="g923">
        <g
           id="g921">
          <g
             clip-path="url(#clipPath899)"
             id="g919">
            <path
               d="m 1187.85,1367.3 -73.67,84.7 -73.66,-84.7 73.66,-84.7 73.67,84.7 z m -73.67,115.16 100.18,-115.16 -100.18,-115.17 -100.17,115.17 100.17,115.16"
               style="fill:#c7a454;fill-opacity:1;fill-rule:nonzero;stroke:none"
               id="path901" />
            <path
               d="m 871.133,454.809 -73.668,84.695 -73.66,-84.695 73.66,-84.7 73.668,84.7 z M 797.465,569.973 897.637,454.809 797.465,339.641 697.301,454.809 797.465,569.973"
               style="fill:#c7a454;fill-opacity:1;fill-rule:nonzero;stroke:none"
               id="path903" />
            <path
               d="m 478.691,1282.6 73.668,84.7 -73.668,84.7 -73.668,-84.7 73.668,-84.7 z M 578.863,1367.3 478.691,1252.13 378.52,1367.3 478.691,1482.46 578.863,1367.3"
               style="fill:#c7a454;fill-opacity:1;fill-rule:nonzero;stroke:none"
               id="path905" />
            <path
               d="m 85.0117,454.809 73.6643,-84.7 73.664,84.7 -73.664,84.695 -73.6643,-84.695 z M 158.676,339.641 58.5078,454.809 158.676,569.973 258.844,454.809 158.676,339.641"
               style="fill:#c7a454;fill-opacity:1;fill-rule:nonzero;stroke:none"
               id="path907" />
            <path
               d="M 0,1430.95 0,1400.48 28.8633,1367.3 0,1334.11 0,1303.64 55.3672,1367.3 0,1430.95"
               style="fill:#c7a454;fill-opacity:1;fill-rule:nonzero;stroke:none"
               id="path909" />
            <path
               d="M 1106.12,432.457 964.711,268.781 c 0.012,-16.73 0.07,-87.125 0.078,-157.16 l 141.331,162.484 0,158.352 z m -1.94,47.188 0,161.128 -136.688,154.188 c 0.063,-84.25 0.113,-150.625 0.121,-158.301 L 1104.18,479.645 Z m -136.707,345.492 136.707,-154.211 0,142.863 c -19.01,21.836 -76.51,87.813 -136.813,157.008 0.031,-48.117 0.071,-98.731 0.106,-145.66 z m 156.707,-343.992 138.01,156.425 0.21,156.715 C 1195.18,718.023 1132.91,647.402 1124.18,637.512 l 0,-156.367 z m 0,186.605 c 26.42,29.957 81.83,92.805 138.26,156.832 l 0.2,145.227 -138.46,-157.075 0,-144.984 z m 1.94,-241.785 0,-157.047 c 25.17,-28.898 80.46,-92.355 137.7,-158.027 -0.06,75.031 -0.1,136.765 -0.1,156.886 l -0.06,0.067 -137.54,158.121 z M 947.328,1024.23 c -0.055,74.64 -0.094,135.98 -0.098,156.04 l -0.046,0.06 -139.719,160.62 0,-156.27 4.539,-5.19 c -0.008,0 64.68,-74.21 135.324,-155.26 z m -0.359,-30.027 C 887.98,1061.88 830.438,1127.9 807.465,1154.25 l 0,-148.63 139.504,-157.354 0,145.937 z m -139.504,399.447 135.656,155.96 0.192,144.54 C 874.246,1614.91 811.988,1543.48 811.988,1543.48 l -4.523,-5.18 0,-144.65 z m -10,-724.224 L 610.797,454.809 797.465,240.188 984.141,454.809 797.465,669.426 Z m -10,335.944 0,140.74 C 759.758,1114.27 703.25,1049.35 646.512,984.172 l -0.043,-140.125 140.996,161.323 z m -140.942,9.28 c 65.856,75.66 127.997,147.04 140.942,161.92 l 0,168.54 -140.887,-161.97 -0.055,-168.49 z m 140.942,375.12 0,156.56 -139.274,155.48 0,-151.92 139.274,-160.12 z M 626.5,961.184 C 561.352,886.332 500.641,816.586 488.691,802.855 l 0,-139.324 137.766,157.621 0.043,140.032 z m -0.055,-170.43 -137.754,-157.606 0,-150.23 137.704,154.273 0.05,153.563 z m -137.754,-364.063 0,-154.285 141.922,-162.238 c -0.054,75.363 -0.093,137.426 -0.101,157.609 l -0.059,0.067 -141.762,158.847 z m -10,725.989 L 665.367,1367.3 478.691,1581.91 292.02,1367.3 478.691,1152.68 Z m -10,-344.969 -136.816,158.078 c 0.035,-49.144 0.074,-100.769 0.105,-148.434 l 136.711,-157.554 0,147.91 z m 0,-178.43 -136.683,157.532 c 0.055,-76.711 0.097,-138.223 0.109,-153.762 25.125,-28.305 102.934,-115.828 136.574,-153.668 l 0,149.898 z m 0,-198.859 -140.421,-157.902 -0.016,-157.641 140.437,161.98 0,153.563 z M 311.965,840.426 c -0.035,48.715 -0.074,100.347 -0.106,148.492 l -140.566,162.412 0,-148.78 140.672,-162.124 z m -3.75,709.854 0.015,148.68 C 237.762,1617.83 173.203,1543.5 173.203,1543.5 l -4.527,-5.18 0,-148.46 139.539,160.42 z m -136.922,-208.55 0,-159.84 140.543,-162.39 c -0.051,76.91 -0.094,140.34 -0.098,160.77 l -0.05,0.06 -140.395,161.4 z m -20,3.77 -139.5117,-160.39 -0.0508,-161.13 139.5625,158.34 0,163.18 z m 0,-193.43 L 7.11719,988.504 10.6641,988.5 10.4766,847.313 C 74.3984,919.852 135.105,988.781 151.293,1007.3 l 0,144.77 z m -2.617,240.33 0,154.01 c -12.571,14.42 -72.5627,83.25 -136.6955,156.83 0.0508,-72.24 0.0976,-131.96 0.1133,-153.82 L 148.676,1392.4 Z m 977.444,206.25 145.88,-167.7 0,-30.47 -157.82,181.43 -186.664,-214.61 186.664,-214.62 157.82,181.44 0,-30.47 -147.82,-169.94 0,-290.737 139.55,158.307 0.05,191.38 8.22,9.45 0,-583.661 L 1127.58,454.758 1272,288.738 1272,0 l -8.31,0 0,80.5977 C 1211.01,141.035 1157.85,202.043 1126.12,238.469 l 0,-140.9026 0.07,0.0547 c 8.15,-9.375 42.25,-48.5078 85.05,-97.6211 l -26.53,0 c -24.34,27.9336 -45.06,51.7148 -58.59,67.2422 l 0,-67.2422 -20,0 0,63.832 C 1092.63,48.3477 1073.12,25.9492 1050.5,0 l -26.53,0 c 38.86,44.5898 70.55,80.9492 82.15,94.2813 l 0,149.3517 L 963.586,79.7617 963.477,0 l -20,0 0.078,56.7305 L 894.207,0 l -26.508,0 77.09,88.6289 c 0.008,86.9881 -0.082,183.8631 -0.082,183.8631 l -0.004,3.731 154.317,178.601 -152.051,174.809 0,188.48 -139.504,157.36 0,-287.075 203.175,-233.589 -202.843,-233.211 0,-221.598 -20.332,0 0,221.219 -203.172,233.59 203.172,233.589 0,286.579 L 646.457,813.648 646.395,629.555 490.406,454.809 650.512,275.266 l 0,-3.75 c 0,-16.332 0.051,-93.114 0.117,-184.2308 L 726.98,0 700.406,0 648.191,59.6914 648.191,0 l -20,0 0,82.5547 -139.5,159.4803 0,-29.492 0,-119.8399 L 571.73,0 544.883,0 488.691,62.7266 488.691,0 l -20,0 0,66.543 C 455.199,51.0156 434.785,27.5156 410.883,0 l -26.492,0 c 41.941,48.2813 75.464,86.875 84.3,97.0352 l 0,115.5078 0,33.789 L 328.254,84.3438 328.242,0 l -20,0 0.004,61.2695 L 255.129,0 228.656,0 308.254,91.8047 308.27,280.227 463.621,454.992 C 438.293,483.48 339.066,595.082 314.645,622.609 l -2.516,2.844 -0.004,3.789 c -0.004,1.481 -0.062,81.582 -0.137,180.641 l -140.695,162.144 0,-285.48 -1.004,0 201.563,-231.738 -203.176,-233.59 0,-221.219 -20,0 0,221.215 L 0,392.148 0,422.617 158.676,240.188 345.348,454.809 158.676,669.426 0,486.996 l 0,30.473 151.293,173.937 0,285.567 C 122.766,944.504 66.6406,880.789 10.4336,817.016 L 10.1836,629.992 0,618.445 0,1202.11 143.723,1367.34 0,1532.57 l 0,284.57 11.8945,0 c 0.0235,-28.19 0.043,-56.38 0.0625,-83.43 55.086,-63.21 109.641,-125.79 136.719,-156.86 l 0,140.77 c -9.168,10.52 -43.571,49.99 -86.7463,99.52 l 26.5351,0 c 24.9762,-28.65 46.2622,-53.07 60.2112,-69.08 l 0,69.08 20,0 0,-69.18 59.98,69.18 26.473,0 -86.453,-99.72 0,-148.63 c 23,26.47 80.605,92.8 139.554,160.68 l 0.012,87.67 20,0 -0.008,-64.64 c 19.422,22.36 38.516,44.34 56.153,64.64 l 26.492,0 c -25.004,-28.78 -53.828,-61.97 -82.649,-95.15 l -0.015,-181.52 -4.399,0 1.352,-1.17 -149.609,-172 156.179,-179.54 0,-3.75 c 0,-16.48 0.051,-94.81 0.117,-187.639 l 136.836,-158.105 0,294.574 0.758,0 -203.929,234.46 203.171,233.58 0,216.26 20,0 0,-216.26 203.18,-233.58 -203.937,-234.46 0.757,0 0,-299.524 c 27,31.028 82.008,94.219 137.821,158.34 l 0.066,198.964 4.199,4.83 -0.035,0.03 149.485,171.86 -152.036,174.78 0,182.02 -83.304,93 26.847,0 56.457,-63.03 0,63.03 20,0 0,-85.36 139.274,-155.48 0,141.31 -87.063,99.53 26.578,0 60.485,-69.15 0,69.15 20.332,0 0,-68.87 59.902,68.87 26.512,0 -86.414,-99.34 0,-148.69 c 22.723,26.07 78.129,89.64 135.558,155.53 l 0.122,92.5 20,0 -0.094,-69.52 c 20.933,24.02 41.607,47.74 60.587,69.52 l 26.53,0 c -26.31,-30.19 -56.832,-65.21 -87.156,-100.01 l -0.235,-175.02 -152.058,-174.81 156.179,-179.54 0,-3.75 c 0,-16.25 0.051,-92.26 0.114,-182.75 53.806,-61.733 107.806,-123.694 136.836,-157.022 l 0,289.472 -203.168,233.59 205.108,235.81 0,214.03 20,0 0,-218.49"
               style="fill:#c7a454;fill-opacity:1;fill-rule:nonzero;stroke:none"
               id="path911" />
            <path
               d="m 1263.69,1817.14 0,-60.17 c -18.15,20.82 -35.93,41.21 -52.45,60.17 l -26.53,0 c 23.95,-27.47 51.39,-58.97 78.98,-90.62 l 0,-184.4 0.41,-0.47 c 0,-0.75 0,-1.19 0,-1.19 l 1.03,0 6.87,-7.89 0,284.57 -8.31,0"
               style="fill:#c7a454;fill-opacity:1;fill-rule:nonzero;stroke:none"
               id="path913" />
            <path
               d="m 1272,392.148 0,30.469 -28,32.192 28,32.187 0,30.473 -54.5,-62.66 54.5,-62.661"
               style="fill:#c7a454;fill-opacity:1;fill-rule:nonzero;stroke:none"
               id="path915" />
            <path
               d="m 11.7188,271.516 0,3.75 L 0,288.738 0,0 11.8945,0 C 11.8828,19.2813 11.8672,38.5625 11.8516,57.4609 29.2031,37.5508 46.1367,18.1211 61.9336,0 L 88.4688,0 C 65.1758,26.7227 38.6836,57.1172 11.832,87.9258 11.7695,178.781 11.7188,255.223 11.7188,271.516"
               style="fill:#c7a454;fill-opacity:1;fill-rule:nonzero;stroke:none"
               id="path917" />
          </g>
        </g>
      </g>
    </pattern>
    <clipPath
       clipPathUnits="userSpaceOnUse"
       id="clipPath931">
      <path
         d="M 0,1818 H 1272 V 0 H 0 Z"
         id="path929" />
    </clipPath>
    <pattern
       patternTransform="matrix(10,0,0,10,0,1366)"
       patternUnits="userSpaceOnUse"
       x="0"
       y="0"
       width="127.2"
       height="181.714"
       id="pattern957">
      <g
         transform="scale(0.1)"
         id="g955">
        <g
           id="g953">
          <g
             clip-path="url(#clipPath931)"
             id="g951">
            <path
               d="m 1187.85,1367.3 -73.67,84.7 -73.66,-84.7 73.66,-84.7 73.67,84.7 z m -73.67,115.16 100.18,-115.16 -100.18,-115.17 -100.17,115.17 100.17,115.16"
               style="fill:#c7a454;fill-opacity:1;fill-rule:nonzero;stroke:none"
               id="path933" />
            <path
               d="m 871.133,454.809 -73.668,84.695 -73.66,-84.695 73.66,-84.7 73.668,84.7 z M 797.465,569.973 897.637,454.809 797.465,339.641 697.301,454.809 797.465,569.973"
               style="fill:#c7a454;fill-opacity:1;fill-rule:nonzero;stroke:none"
               id="path935" />
            <path
               d="m 478.691,1282.6 73.668,84.7 -73.668,84.7 -73.668,-84.7 73.668,-84.7 z M 578.863,1367.3 478.691,1252.13 378.52,1367.3 478.691,1482.46 578.863,1367.3"
               style="fill:#c7a454;fill-opacity:1;fill-rule:nonzero;stroke:none"
               id="path937" />
            <path
               d="m 85.0117,454.809 73.6643,-84.7 73.664,84.7 -73.664,84.695 -73.6643,-84.695 z M 158.676,339.641 58.5078,454.809 158.676,569.973 258.844,454.809 158.676,339.641"
               style="fill:#c7a454;fill-opacity:1;fill-rule:nonzero;stroke:none"
               id="path939" />
            <path
               d="M 0,1430.95 0,1400.48 28.8633,1367.3 0,1334.11 0,1303.64 55.3672,1367.3 0,1430.95"
               style="fill:#c7a454;fill-opacity:1;fill-rule:nonzero;stroke:none"
               id="path941" />
            <path
               d="M 1106.12,432.457 964.711,268.781 c 0.012,-16.73 0.07,-87.125 0.078,-157.16 l 141.331,162.484 0,158.352 z m -1.94,47.188 0,161.128 -136.688,154.188 c 0.063,-84.25 0.113,-150.625 0.121,-158.301 L 1104.18,479.645 Z m -136.707,345.492 136.707,-154.211 0,142.863 c -19.01,21.836 -76.51,87.813 -136.813,157.008 0.031,-48.117 0.071,-98.731 0.106,-145.66 z m 156.707,-343.992 138.01,156.425 0.21,156.715 C 1195.18,718.023 1132.91,647.402 1124.18,637.512 l 0,-156.367 z m 0,186.605 c 26.42,29.957 81.83,92.805 138.26,156.832 l 0.2,145.227 -138.46,-157.075 0,-144.984 z m 1.94,-241.785 0,-157.047 c 25.17,-28.898 80.46,-92.355 137.7,-158.027 -0.06,75.031 -0.1,136.765 -0.1,156.886 l -0.06,0.067 -137.54,158.121 z M 947.328,1024.23 c -0.055,74.64 -0.094,135.98 -0.098,156.04 l -0.046,0.06 -139.719,160.62 0,-156.27 4.539,-5.19 c -0.008,0 64.68,-74.21 135.324,-155.26 z m -0.359,-30.027 C 887.98,1061.88 830.438,1127.9 807.465,1154.25 l 0,-148.63 139.504,-157.354 0,145.937 z m -139.504,399.447 135.656,155.96 0.192,144.54 C 874.246,1614.91 811.988,1543.48 811.988,1543.48 l -4.523,-5.18 0,-144.65 z m -10,-724.224 L 610.797,454.809 797.465,240.188 984.141,454.809 797.465,669.426 Z m -10,335.944 0,140.74 C 759.758,1114.27 703.25,1049.35 646.512,984.172 l -0.043,-140.125 140.996,161.323 z m -140.942,9.28 c 65.856,75.66 127.997,147.04 140.942,161.92 l 0,168.54 -140.887,-161.97 -0.055,-168.49 z m 140.942,375.12 0,156.56 -139.274,155.48 0,-151.92 139.274,-160.12 z M 626.5,961.184 C 561.352,886.332 500.641,816.586 488.691,802.855 l 0,-139.324 137.766,157.621 0.043,140.032 z m -0.055,-170.43 -137.754,-157.606 0,-150.23 137.704,154.273 0.05,153.563 z m -137.754,-364.063 0,-154.285 141.922,-162.238 c -0.054,75.363 -0.093,137.426 -0.101,157.609 l -0.059,0.067 -141.762,158.847 z m -10,725.989 L 665.367,1367.3 478.691,1581.91 292.02,1367.3 478.691,1152.68 Z m -10,-344.969 -136.816,158.078 c 0.035,-49.144 0.074,-100.769 0.105,-148.434 l 136.711,-157.554 0,147.91 z m 0,-178.43 -136.683,157.532 c 0.055,-76.711 0.097,-138.223 0.109,-153.762 25.125,-28.305 102.934,-115.828 136.574,-153.668 l 0,149.898 z m 0,-198.859 -140.421,-157.902 -0.016,-157.641 140.437,161.98 0,153.563 z M 311.965,840.426 c -0.035,48.715 -0.074,100.347 -0.106,148.492 l -140.566,162.412 0,-148.78 140.672,-162.124 z m -3.75,709.854 0.015,148.68 C 237.762,1617.83 173.203,1543.5 173.203,1543.5 l -4.527,-5.18 0,-148.46 139.539,160.42 z m -136.922,-208.55 0,-159.84 140.543,-162.39 c -0.051,76.91 -0.094,140.34 -0.098,160.77 l -0.05,0.06 -140.395,161.4 z m -20,3.77 -139.5117,-160.39 -0.0508,-161.13 139.5625,158.34 0,163.18 z m 0,-193.43 L 7.11719,988.504 10.6641,988.5 10.4766,847.313 C 74.3984,919.852 135.105,988.781 151.293,1007.3 l 0,144.77 z m -2.617,240.33 0,154.01 c -12.571,14.42 -72.5627,83.25 -136.6955,156.83 0.0508,-72.24 0.0976,-131.96 0.1133,-153.82 L 148.676,1392.4 Z m 977.444,206.25 145.88,-167.7 0,-30.47 -157.82,181.43 -186.664,-214.61 186.664,-214.62 157.82,181.44 0,-30.47 -147.82,-169.94 0,-290.737 139.55,158.307 0.05,191.38 8.22,9.45 0,-583.661 L 1127.58,454.758 1272,288.738 1272,0 l -8.31,0 0,80.5977 C 1211.01,141.035 1157.85,202.043 1126.12,238.469 l 0,-140.9026 0.07,0.0547 c 8.15,-9.375 42.25,-48.5078 85.05,-97.6211 l -26.53,0 c -24.34,27.9336 -45.06,51.7148 -58.59,67.2422 l 0,-67.2422 -20,0 0,63.832 C 1092.63,48.3477 1073.12,25.9492 1050.5,0 l -26.53,0 c 38.86,44.5898 70.55,80.9492 82.15,94.2813 l 0,149.3517 L 963.586,79.7617 963.477,0 l -20,0 0.078,56.7305 L 894.207,0 l -26.508,0 77.09,88.6289 c 0.008,86.9881 -0.082,183.8631 -0.082,183.8631 l -0.004,3.731 154.317,178.601 -152.051,174.809 0,188.48 -139.504,157.36 0,-287.075 203.175,-233.589 -202.843,-233.211 0,-221.598 -20.332,0 0,221.219 -203.172,233.59 203.172,233.589 0,286.579 L 646.457,813.648 646.395,629.555 490.406,454.809 650.512,275.266 l 0,-3.75 c 0,-16.332 0.051,-93.114 0.117,-184.2308 L 726.98,0 700.406,0 648.191,59.6914 648.191,0 l -20,0 0,82.5547 -139.5,159.4803 0,-29.492 0,-119.8399 L 571.73,0 544.883,0 488.691,62.7266 488.691,0 l -20,0 0,66.543 C 455.199,51.0156 434.785,27.5156 410.883,0 l -26.492,0 c 41.941,48.2813 75.464,86.875 84.3,97.0352 l 0,115.5078 0,33.789 L 328.254,84.3438 328.242,0 l -20,0 0.004,61.2695 L 255.129,0 228.656,0 308.254,91.8047 308.27,280.227 463.621,454.992 C 438.293,483.48 339.066,595.082 314.645,622.609 l -2.516,2.844 -0.004,3.789 c -0.004,1.481 -0.062,81.582 -0.137,180.641 l -140.695,162.144 0,-285.48 -1.004,0 201.563,-231.738 -203.176,-233.59 0,-221.219 -20,0 0,221.215 L 0,392.148 0,422.617 158.676,240.188 345.348,454.809 158.676,669.426 0,486.996 l 0,30.473 151.293,173.937 0,285.567 C 122.766,944.504 66.6406,880.789 10.4336,817.016 L 10.1836,629.992 0,618.445 0,1202.11 143.723,1367.34 0,1532.57 l 0,284.57 11.8945,0 c 0.0235,-28.19 0.043,-56.38 0.0625,-83.43 55.086,-63.21 109.641,-125.79 136.719,-156.86 l 0,140.77 c -9.168,10.52 -43.571,49.99 -86.7463,99.52 l 26.5351,0 c 24.9762,-28.65 46.2622,-53.07 60.2112,-69.08 l 0,69.08 20,0 0,-69.18 59.98,69.18 26.473,0 -86.453,-99.72 0,-148.63 c 23,26.47 80.605,92.8 139.554,160.68 l 0.012,87.67 20,0 -0.008,-64.64 c 19.422,22.36 38.516,44.34 56.153,64.64 l 26.492,0 c -25.004,-28.78 -53.828,-61.97 -82.649,-95.15 l -0.015,-181.52 -4.399,0 1.352,-1.17 -149.609,-172 156.179,-179.54 0,-3.75 c 0,-16.48 0.051,-94.81 0.117,-187.639 l 136.836,-158.105 0,294.574 0.758,0 -203.929,234.46 203.171,233.58 0,216.26 20,0 0,-216.26 203.18,-233.58 -203.937,-234.46 0.757,0 0,-299.524 c 27,31.028 82.008,94.219 137.821,158.34 l 0.066,198.964 4.199,4.83 -0.035,0.03 149.485,171.86 -152.036,174.78 0,182.02 -83.304,93 26.847,0 56.457,-63.03 0,63.03 20,0 0,-85.36 139.274,-155.48 0,141.31 -87.063,99.53 26.578,0 60.485,-69.15 0,69.15 20.332,0 0,-68.87 59.902,68.87 26.512,0 -86.414,-99.34 0,-148.69 c 22.723,26.07 78.129,89.64 135.558,155.53 l 0.122,92.5 20,0 -0.094,-69.52 c 20.933,24.02 41.607,47.74 60.587,69.52 l 26.53,0 c -26.31,-30.19 -56.832,-65.21 -87.156,-100.01 l -0.235,-175.02 -152.058,-174.81 156.179,-179.54 0,-3.75 c 0,-16.25 0.051,-92.26 0.114,-182.75 53.806,-61.733 107.806,-123.694 136.836,-157.022 l 0,289.472 -203.168,233.59 205.108,235.81 0,214.03 20,0 0,-218.49"
               style="fill:#c7a454;fill-opacity:1;fill-rule:nonzero;stroke:none"
               id="path943" />
            <path
               d="m 1263.69,1817.14 0,-60.17 c -18.15,20.82 -35.93,41.21 -52.45,60.17 l -26.53,0 c 23.95,-27.47 51.39,-58.97 78.98,-90.62 l 0,-184.4 0.41,-0.47 c 0,-0.75 0,-1.19 0,-1.19 l 1.03,0 6.87,-7.89 0,284.57 -8.31,0"
               style="fill:#c7a454;fill-opacity:1;fill-rule:nonzero;stroke:none"
               id="path945" />
            <path
               d="m 1272,392.148 0,30.469 -28,32.192 28,32.187 0,30.473 -54.5,-62.66 54.5,-62.661"
               style="fill:#c7a454;fill-opacity:1;fill-rule:nonzero;stroke:none"
               id="path947" />
            <path
               d="m 11.7188,271.516 0,3.75 L 0,288.738 0,0 11.8945,0 C 11.8828,19.2813 11.8672,38.5625 11.8516,57.4609 29.2031,37.5508 46.1367,18.1211 61.9336,0 L 88.4688,0 C 65.1758,26.7227 38.6836,57.1172 11.832,87.9258 11.7695,178.781 11.7188,255.223 11.7188,271.516"
               style="fill:#c7a454;fill-opacity:1;fill-rule:nonzero;stroke:none"
               id="path949" />
          </g>
        </g>
      </g>
    </pattern>
    <clipPath
       clipPathUnits="userSpaceOnUse"
       id="clipPath965">
      <path
         d="M 0,924 H 749 V 0 H 0 Z"
         id="path963" />
    </clipPath>
    <pattern
       patternTransform="matrix(10,0,0,10,0,384)"
       patternUnits="userSpaceOnUse"
       x="0"
       y="0"
       width="74.8582"
       height="92.3193"
       id="pattern981">
      <g
         transform="scale(0.1)"
         id="g979">
        <g
           id="g977">
          <g
             clip-path="url(#clipPath965)"
             id="g975">
            <path
               d="m 600.836,788.777 c -24.738,-21.902 -49.906,-46.14 -73.82,-72.254 24.601,-30.433 92.988,-121.351 141.297,-246.613 31.664,-82.097 53.46,-188.012 67.847,-279.215 -3.914,107.864 -10.883,239.047 -22.812,305.844 -22.328,125.066 -39.11,188.852 -58.485,248.324 -11.8,9.035 -24.308,18.938 -37.238,29.645 -5.508,4.562 -11.152,9.426 -16.789,14.269 z M 729.441,133.352 C 715.816,233.313 692.184,366.332 654.32,464.52 607.602,585.648 541.941,673.965 516.863,705.227 481.43,665.078 449.473,620.793 426.785,573.824 547.23,516.289 672.68,326.355 729.441,133.352 Z M 719.23,115.133 c -53.273,193.933 -178.644,387.73 -298.718,445.078 -15.141,-34.473 -25.047,-70.273 -27.528,-106.852 19.5,-12.57 63.629,-42.214 113.977,-83.918 77.113,-63.878 165.5,-152.902 212.269,-254.308 z M 508.469,342.008 c -4.785,4.09 -9.551,8.121 -14.262,12.023 -54.848,45.43 -102.012,76.211 -117.148,85.782 -15.524,-9.473 -64.356,-40.313 -119.25,-85.782 -4.711,-3.906 -9.485,-7.941 -14.274,-12.035 4.781,-4.086 9.602,-8.254 14.281,-12.125 54.778,-45.371 101.997,-76.191 117.141,-85.773 15.527,9.472 64.356,40.312 119.25,85.773 4.664,3.867 9.488,8.059 14.262,12.137 z m -263.414,27.433 c 46.386,38.414 88.597,66.629 110.761,80.696 -2.097,37.695 -12.168,74.586 -27.753,110.074 C 203.695,500.813 73.6211,295.016 23.8906,94.3281 67.5391,204.344 162.711,301.23 245.055,369.441 Z M 21.9102,142.852 C 79.9414,332.559 203.324,517.234 321.789,573.824 299.66,619.637 268.711,662.902 234.316,702.262 212.262,676.344 144.363,590.625 95.7305,464.52 59.0508,369.41 35.7188,241.613 21.9102,142.852 Z M 81.7344,469.91 c 50.3786,130.625 121.2036,218.828 142.5196,243.653 -24.719,27.246 -50.852,52.496 -76.524,75.222 -5.628,-4.84 -11.285,-9.726 -16.781,-14.277 C 118.828,764.469 107.012,755.16 95.7422,746.582 76.1367,686.602 59.25,622.797 36.7031,496.539 24.7617,429.684 16.5391,290.426 11.4688,175.133 c 14.3164,94.504 36.789,207.98 70.2656,294.777 z m 666.8476,453.281 0,-23.984 c -16.5,-10.113 -64.398,-40.57 -118.203,-85.137 -4.715,-3.902 -9.481,-7.933 -14.27,-12.027 4.782,-4.086 9.598,-8.254 14.274,-12.125 54.781,-45.379 101.996,-76.199 117.144,-85.781 0.309,0.191 0.719,0.441 1.055,0.648 l 0,-23.262 -1.254,-0.726 -5.074,3.066 c -0.391,0.239 -27.598,16.778 -66.723,45.504 16.977,-54.906 32.582,-118.176 52.582,-230.191 9.793,-54.844 16.27,-152.274 20.469,-245.02 L 748.582,0 731.113,0 C 727.93,34.25 718.293,67.7891 704.074,100.164 663.359,80.7188 622.059,45.5078 583.152,0 L 564.078,0 C 606.773,51.9805 652.641,92.207 697.801,113.777 675.668,159.59 644.719,202.855 610.32,242.215 588.266,216.293 520.375,130.574 471.742,4.46875 471.176,3.01172 470.648,1.47656 470.09,0 l -16,0 c 1.215,3.29688 2.41,6.63281 3.656,9.85938 C 508.121,140.484 578.938,228.688 600.258,253.52 575.543,280.766 549.41,306.016 523.742,328.742 518.113,323.906 512.457,319.02 506.965,314.469 494.844,304.434 483.031,295.121 471.762,286.547 452.156,226.59 435.266,162.789 412.711,36.5 410.844,26.0391 409.078,13.6367 407.391,0 l -15.118,0 c 1.793,14.707 3.676,27.9648 5.672,39.1367 20.235,113.2933 35.965,176.7303 53.16,232.0663 -41.207,-29.914 -70.808,-47.234 -71.226,-47.476 l -5.121,-2.969 -5.074,3.066 c -0.387,0.239 -27.598,16.778 -66.723,45.504 C 319.934,214.426 335.535,151.164 355.543,39.1367 357.566,27.8008 359.445,14.5625 361.195,0 l -15.113,0 c -1.652,13.5078 -3.41,25.8906 -5.305,36.5 -22.336,125.082 -39.121,188.859 -58.484,248.32 -11.801,9.035 -24.309,18.934 -37.238,29.641 -5.5,4.562 -11.153,9.426 -16.793,14.269 C 203.527,306.832 178.363,282.59 154.449,256.477 179.059,226.035 247.438,135.121 295.746,9.85938 296.969,6.67969 298.086,3.25 299.281,0 L 283.398,0 C 282.844,1.47266 282.313,3.01172 281.75,4.46875 235.035,125.598 169.383,213.91 144.297,245.18 108.863,205.031 76.9063,160.738 54.2148,113.777 99.3867,92.1992 145.266,52 187.957,0 L 168.863,0 C 129.957,45.5078 88.6563,80.7188 47.9414,100.16 33.7227,67.7891 24.0898,34.25 20.9023,0 L 0,0 0,254.211 c 0.046875,-1.023 0.09375,-2.055 0.140625,-3.078 C 5.25,347.273 12.4102,445.848 21.9375,499.176 42.1602,612.453 57.8945,675.898 75.0938,731.242 33.8906,701.328 4.28516,684.008 3.87109,683.766 L 0,681.523 0,704.785 c 16.5078,10.117 64.3984,40.574 118.195,85.133 4.668,3.863 9.489,8.051 14.262,12.133 -4.785,4.086 -9.551,8.117 -14.262,12.019 C 63.3477,859.5 16.1836,890.281 1.04688,899.852 0.738281,899.66 0.335938,899.41 0,899.207 l 0,23.984 20.9414,0 C 20.5781,919.27 20.2422,915.344 20.0508,911.402 40.8438,897.871 83.043,869.164 130.949,829.48 214.441,760.328 311.121,661.711 353.91,549.793 321.242,687.23 250.336,827.914 168.879,923.191 l 19.078,0 c 71.137,-86.64 133.434,-206.043 168.906,-326.652 -13.422,98.469 -36.586,228.934 -73.465,326.652 l 15.883,0 c 29.707,-80.64 50.481,-181.691 64.313,-269.367 -3.293,90.739 -8.762,197.832 -17.512,269.367 l 15.113,0 c 6.809,-56.636 11.621,-134.414 14.957,-208.906 4.039,75.996 9.368,153.418 16.121,208.906 l 15.118,0 c -9.102,-73.515 -15.633,-187.652 -19.914,-284.914 13.785,90.989 35.164,199.496 66.613,284.914 l 16,0 C 434.379,828.578 411.52,703.266 397.926,606.02 c 35.906,117.386 96.847,232.8 166.148,317.171 l 19.055,0 C 505.855,832.805 438.082,701.547 403.434,570.961 c 46.238,103.16 136.004,193.762 214.191,258.519 49.051,40.622 93.324,69.762 114.27,82.903 -0.192,3.613 -0.52,7.211 -0.852,10.808 l 17.539,0"
               style="fill:#473a3f;fill-opacity:1;fill-rule:nonzero;stroke:none"
               id="path967" />
            <path
               d="m 744.402,850.172 c -0.882,-0.535 -21.964,-13.348 -47.949,-34.863 -2.89,-2.403 -5.836,-4.903 -8.82,-7.5 l -2.668,-2.657 0.199,-6.824 2.477,-2.16 c 2.976,-2.598 5.922,-5.086 8.816,-7.5 25.981,-21.5 47.063,-34.316 47.945,-34.852 l 3.805,-2.304 0.375,0.218 0,17.461 c -0.066,-0.043 -0.16,-0.101 -0.227,-0.14 -7.152,4.617 -23.558,15.633 -42.316,31.16 -0.703,0.598 -1.418,1.184 -2.129,1.789 0.707,0.594 1.414,1.18 2.117,1.758 18.766,15.547 35.176,26.562 42.328,31.18 0.067,-0.04 0.161,-0.098 0.227,-0.141 l 0,17.465 -0.375,0.215 -3.805,-2.305"
               style="fill:#473a3f;fill-opacity:1;fill-rule:nonzero;stroke:none"
               id="path969" />
            <path
               d="m 420.961,341.949 c -0.703,0.598 -1.406,1.184 -2.109,1.758 l -0.008,0.012 c -18.809,15.574 -35.731,26.601 -43.055,31.172 -7.152,-4.621 -23.566,-15.637 -42.328,-31.184 -0.703,-0.574 -1.414,-1.16 -2.121,-1.758 0.707,-0.594 1.418,-1.179 2.121,-1.765 18.762,-15.539 35.176,-26.555 42.328,-31.172 7.324,4.57 24.246,15.593 43.055,31.172 0.703,0.586 1.406,1.171 2.117,1.765 z m 16.469,5.656 6.472,-5.656 -6.472,-5.652 c -3.047,-2.656 -6.055,-5.207 -9.008,-7.656 -26.031,-21.563 -48.02,-34.395 -48.942,-34.934 l -3.843,-2.234 -3.805,2.304 c -0.883,0.536 -21.961,13.348 -47.941,34.852 -2.887,2.402 -5.836,4.902 -8.821,7.5 l -2.468,2.16 -0.207,6.805 2.652,2.656 c 2.992,2.617 5.945,5.117 8.848,7.52 25.976,21.503 47.054,34.316 47.937,34.855 l 3.805,2.305 3.843,-2.239 c 0.922,-0.535 22.907,-13.367 48.93,-34.921 2.953,-2.442 5.973,-5.008 9.02,-7.665"
               style="fill:#473a3f;fill-opacity:1;fill-rule:nonzero;stroke:none"
               id="path971" />
            <path
               d="m 52.4102,788.68 c 2.9531,2.449 5.9726,5.008 9.0195,7.675 l 6.4492,5.653 -6.4609,5.644 c -3.0469,2.657 -6.0547,5.207 -9.0078,7.657 l -0.0039,0 C 26.3789,836.875 4.39063,849.703 3.46875,850.242 L 0,852.262 0,834.801 c 7.42578,-4.645 24.1836,-15.594 42.8281,-31.035 0.7032,-0.586 1.4141,-1.172 2.125,-1.766 -0.707,-0.598 -1.414,-1.191 -2.1172,-1.777 C 24.1914,784.781 7.42578,773.832 0,769.191 l 0,-17.461 3.46875,2.02 c 0.92188,0.535 22.91015,13.367 48.94145,34.93"
               style="fill:#473a3f;fill-opacity:1;fill-rule:nonzero;stroke:none"
               id="path973" />
          </g>
        </g>
      </g>
    </pattern>
  </defs>
  <sodipodi:namedview
     id="base"
     pagecolor="#ffffff"
     bordercolor="#666666"
     borderopacity="1.0"
     inkscape:pageopacity="0.0"
     inkscape:pageshadow="2"
     inkscape:zoom="0.49497475"
     inkscape:cx="482.65794"
     inkscape:cy="367.00845"
     inkscape:document-units="mm"
     inkscape:current-layer="layer1"
     inkscape:document-rotation="0"
     showgrid="false"
     inkscape:window-width="1267"
     inkscape:window-height="967"
     inkscape:window-x="220"
     inkscape:window-y="37"
     inkscape:window-maximized="0" />
  <metadata
     id="metadata5">
    <rdf:RDF>
      <cc:Work
         rdf:about="">
        <dc:format>image/svg+xml</dc:format>
        <dc:type
           rdf:resource="http://purl.org/dc/dcmitype/StillImage" />
        <dc:title></dc:title>
      </cc:Work>
    </rdf:RDF>
  </metadata>
  <g
     inkscape:label="Layer 1"
     inkscape:groupmode="layer"
     id="layer1"
     transform="translate(10.954907,-5.6575927)">
    <path
       d="M 65.455529,234.43134 H -10.954907 V 5.6575927 H 65.455529 V 234.43134"
       style="fill:#473a3f;fill-opacity:1;fill-rule:nonzero;stroke:none;stroke-width:0.0457547"
       id="path845" />
    <path
       d="M 65.455529,234.43134 H -10.954907 V 5.6575927 H 65.455529 V 234.43134"
       style="fill:url(#pattern1078);fill-opacity:1;fill-rule:nonzero;stroke:none;stroke-width:0.0457547"
       id="path891" />
    <path
       d="M 141.63719,234.43134 H 65.226749 V 5.6575927 H 141.63719 V 234.43134"
       style="fill:#f7f1e5;fill-opacity:1;fill-rule:nonzero;stroke:none;stroke-width:0.0457547"
       id="path893" />
    <path
       d="M 141.63719,234.43134 H 65.226749 V 5.6575927 H 141.63719 V 234.43134"
       style="fill:#f7f1e5;fill-opacity:1;fill-rule:nonzero;stroke:none;stroke-width:0.0457547"
       id="path895" />
    <path
       d="M 141.63719,234.43134 H 65.226749 V 5.6575927 H 141.63719 V 234.43134"
       style="fill:url(#pattern1073);fill-opacity:1;fill-rule:nonzero;stroke:none;stroke-width:0.0457547"
       id="path927" />
    <path
       d="M 217.81884,234.43134 H 141.40841 V 5.6575927 h 76.41043 V 234.43134"
       style="fill:#c7a454;fill-opacity:1;fill-rule:nonzero;stroke:none;stroke-width:0.0457547"
       id="path961" />
    <path
       d="M 218.04762,234.43134 H 141.63719 V 5.6575927 h 76.41043 V 234.43134"
       style="fill:url(#pattern1066);fill-opacity:1;fill-rule:nonzero;stroke:none;stroke-width:0.0457547"
       id="path983" />
  </g>
</svg>
