<?xml version="1.0" encoding="UTF-8" standalone="no"?>
<svg
   xmlns:dc="http://purl.org/dc/elements/1.1/"
   xmlns:cc="http://creativecommons.org/ns#"
   xmlns:rdf="http://www.w3.org/1999/02/22-rdf-syntax-ns#"
   xmlns:svg="http://www.w3.org/2000/svg"
   xmlns="http://www.w3.org/2000/svg"
   xmlns:sodipodi="http://sodipodi.sourceforge.net/DTD/sodipodi-0.dtd"
   xmlns:inkscape="http://www.inkscape.org/namespaces/inkscape"
   width="210mm"
   height="297mm"
   viewBox="0 0 210 297"
   version="1.1"
   id="svg65"
   sodipodi:docname="drawing.svg"
   inkscape:version="1.0.1 (3bc2e813f5, 2020-09-07)">
  <defs
     id="defs59" />
  <sodipodi:namedview
     id="base"
     pagecolor="#ffffff"
     bordercolor="#666666"
     borderopacity="1.0"
     inkscape:pageopacity="0.0"
     inkscape:pageshadow="2"
     inkscape:zoom="0.5"
     inkscape:cx="-175.29749"
     inkscape:cy="601.24303"
     inkscape:document-units="mm"
     inkscape:current-layer="layer1"
     inkscape:document-rotation="0"
     showgrid="false"
     inkscape:window-width="1920"
     inkscape:window-height="1051"
     inkscape:window-x="-9"
     inkscape:window-y="-9"
     inkscape:window-maximized="1" />
  <metadata
     id="metadata62">
    <rdf:RDF>
      <cc:Work
         rdf:about="">
        <dc:format>image/svg+xml</dc:format>
        <dc:type
           rdf:resource="http://purl.org/dc/dcmitype/StillImage" />
      </cc:Work>
    </rdf:RDF>
  </metadata>
  <g
     inkscape:label="Layer 1"
     inkscape:groupmode="layer"
     id="layer1">
    <path
       style="fill:#333333;fill-opacity:1;stroke-width:0.596538"
       d="M 66.162616,155.70921 C 42.867781,108.93786 22.801711,68.97634 21.57135,66.905819 c -1.230361,-2.070521 -2.237019,-4.04772 -2.237019,-4.393786 0,-0.424841 -1.274563,-0.629223 15.230459,-0.629223 15.178431,0 15.278122,0.12423 15.58358,0.920229 1.153753,3.006622 14.483147,6.299042 33.612139,8.30233 16.236847,1.700423 25.356081,2.144045 51.699631,2.515112 l 26.34673,0.371113 3.0328,-6.043547 c 1.66802,-3.323963 3.0328,-6.320823 3.0328,-6.659694 0,-0.338894 -0.87245,-1.15284 -1.93876,-1.808803 -5.764,-3.545774 -23.38103,-6.492491 -50.25838,-8.406493 C 104.21182,50.256715 59.004732,50.021282 43.195878,50.695591 36.741836,50.970882 33.105906,50.9301 33.671824,50.588766 35.173393,49.683091 47.786196,46.499376 54.828382,45.248442 108.92621,35.638807 188.97278,43.470444 197.44469,59.201801 l 1.13351,2.104837 -44.7324,89.720602 c -24.60282,49.34632 -45.03067,89.72067 -45.03067,89.72067 0,0 -19.357676,-38.26737 -42.652514,-85.0387 z m 67.890764,-26.18584 c 13.71514,-27.43267 24.85477,-49.958139 24.75469,-50.056599 -0.1001,-0.09853 -3.0006,0.188938 -6.44562,0.63858 -25.14713,3.282387 -61.947505,3.282387 -87.094642,0 -3.445009,-0.449664 -6.345535,-0.737017 -6.445612,-0.63858 -0.251119,0.24704 49.618234,99.934159 49.992934,99.934159 0.16588,0 11.5231,-22.4449 25.23825,-49.87756 z"
       id="path48"
       sodipodi:nodetypes="ssssssscsscssssscscssscssss" />
  </g>
</svg>
