<?xml version="1.0" encoding="UTF-8" standalone="no"?>
<svg
   xmlns:dc="http://purl.org/dc/elements/1.1/"
   xmlns:cc="http://creativecommons.org/ns#"
   xmlns:rdf="http://www.w3.org/1999/02/22-rdf-syntax-ns#"
   xmlns:svg="http://www.w3.org/2000/svg"
   xmlns="http://www.w3.org/2000/svg"
   xmlns:sodipodi="http://sodipodi.sourceforge.net/DTD/sodipodi-0.dtd"
   xmlns:inkscape="http://www.inkscape.org/namespaces/inkscape"
   inkscape:version="1.0 (4035a4fb49, 2020-05-01)"
   sodipodi:docname="logo.svg"
   id="svg65"
   version="1.1"
   viewBox="0 0 179.26668 199.69661"
   height="199.69661mm"
   width="179.26668mm">
  <defs
     id="defs59" />
  <sodipodi:namedview
     inkscape:window-maximized="1"
     inkscape:window-y="-6"
     inkscape:window-x="-6"
     inkscape:window-height="1018"
     inkscape:window-width="1620"
     showgrid="false"
     inkscape:document-rotation="0"
     inkscape:current-layer="layer1"
     inkscape:document-units="mm"
     inkscape:cy="327.55579"
     inkscape:cx="298.23102"
     inkscape:zoom="0.70710678"
     inkscape:pageshadow="2"
     inkscape:pageopacity="0.0"
     borderopacity="1.0"
     bordercolor="#666666"
     pagecolor="#ffffff"
     id="base" />
  <metadata
     id="metadata62">
    <rdf:RDF>
      <cc:Work
         rdf:about="">
        <dc:format>image/svg+xml</dc:format>
        <dc:type
           rdf:resource="http://purl.org/dc/dcmitype/StillImage" />
      </cc:Work>
    </rdf:RDF>
  </metadata>
  <g
     transform="translate(-14.019852,-48.459624)"
     id="layer1"
     inkscape:groupmode="layer"
     inkscape:label="Layer 1">
    <path
       sodipodi:nodetypes="ssssssscsscssssscscssscssss"
       id="path48"
       d="M 64.797837,162.98881 C 43.497118,120.22125 25.148772,83.680567 24.023734,81.787289 c -1.125038,-1.893277 -2.045523,-3.701221 -2.045523,-4.017663 0,-0.388473 -1.165456,-0.575359 13.92668,-0.575359 13.879106,0 13.970264,0.113595 14.249573,0.841454 1.054988,2.749245 13.243341,5.759823 30.734827,7.591622 14.846918,1.554861 23.185509,1.960508 47.273969,2.29981 l 24.09136,0.339345 2.77318,-5.526199 c 1.52523,-3.039421 2.77318,-5.779739 2.77318,-6.089602 0,-0.309883 -0.79776,-1.054153 -1.77279,-1.653963 -5.27059,-3.242244 -21.37954,-5.936712 -45.9561,-7.686869 -10.48219,-0.74646 -51.819398,-0.961739 -66.274961,-0.345154 -5.901554,0.251726 -9.226236,0.214435 -8.708763,-0.09768 1.37303,-0.828146 12.906134,-3.739324 19.345486,-4.883174 49.466868,-8.787018 122.661178,-1.625796 130.407868,12.758904 l 1.03648,1.924656 -40.90316,82.040213 c -22.49673,45.12211 -41.17589,82.04028 -41.17589,82.04028 0,0 -17.700592,-34.99155 -39.001313,-77.7591 z m 62.079083,-23.94424 c 12.54108,-25.08434 22.72712,-45.681553 22.6356,-45.771593 -0.0915,-0.0901 -2.74373,0.17277 -5.89385,0.58392 -22.99445,3.0014 -56.644586,3.0014 -79.639043,0 -3.150104,-0.41117 -5.802335,-0.67393 -5.893845,-0.58392 -0.229623,0.2259 45.370738,91.379463 45.713368,91.379463 0.15168,0 10.53668,-20.52354 23.07777,-45.60787 z"
       style="fill:#333333;fill-opacity:1;stroke-width:0.545472" />
    <path
       sodipodi:nodetypes="cccc"
       id="path831"
       d="m 22.118085,77.715614 c 11.641667,8.069792 22.884924,13.99727 43.615969,16.308813 26.466734,3.579507 44.423356,2.906523 72.379006,0.529167 16.93333,-1.785938 36.3821,-5.051394 36.3821,-5.051394"
       style="fill:none;stroke:#ffffff;stroke-width:0.765;stroke-linecap:butt;stroke-linejoin:miter;stroke-miterlimit:4;stroke-dasharray:none;stroke-opacity:1" />
  </g>
</svg>
