<?xml version="1.0" encoding="UTF-8"?>
<svg width="42.36mm" height="228.8mm" version="1.1" viewBox="0 0 42.36 228.8" xmlns="http://www.w3.org/2000/svg" xmlns:cc="http://creativecommons.org/ns#" xmlns:dc="http://purl.org/dc/elements/1.1/" xmlns:rdf="http://www.w3.org/1999/02/22-rdf-syntax-ns#" xmlns:xlink="http://www.w3.org/1999/xlink">
 <defs>
  <pattern id="pattern2632" patternTransform="matrix(.4575 0 0 -.4575 29.73 228.4)" xlink:href="#pattern2626"/>
  <pattern id="pattern2626" patternTransform="matrix(1.729 0 0 -1.729 328.2 471.2)" xlink:href="#pattern1078"/>
  <pattern id="pattern1078" patternTransform="matrix(.4575 0 0 -.4575 18.49 224.7)" xlink:href="#pattern889"/>
  <pattern id="pattern889" width="93" height="83.7838" patternTransform="matrix(10,0,0,10,0,811)" patternUnits="userSpaceOnUse">
   <g transform="scale(.1)">
    <g clip-path="url(#clipPath849)">
     <path d="m83.59 589.6c21-76.73 40.9-126.3 46.28-139.1 56.61 19.45 108.8 50.86 154.1 91.97-13.77 14.26-46.9 50.22-84.64 102.7-34.23-24.68-72.68-44.24-115.7-55.59zm127.7 64.58c37.46-52.15 70.29-87.71 83.57-101.4 43.02 41.61 79.25 92.23 106.4 149.7-32.14 13.13-63.78 30.37-94.41 51.13-26.94-36.18-58.69-70.7-95.59-99.41zm-39.33-306.9c25-33.74 54.21-66.04 87.95-93.18 27.69 40.06 57.13 89.14 82.57 145.7 47.07 104.7 76.65 221 93.89 305.6-53.48-144.9-150.1-275.4-264.4-358.1zm184.2 46.39c-25.98-57.78-56.07-107.9-84.38-148.7 31.98-23.8 67.84-42.8 107.8-54.26 13.4 51.78 26.75 114.1 36.59 184.8 15.23 109.3 25.53 225.7 31.91 312.7-17.77-83.94-46.96-194.4-91.92-294.4zm105.9 280.3c-6.461-85.62-16.51-196.3-31.04-300.6-9.926-71.21-23.41-134.2-36.95-186.5 22.41-5.25 46.01-8.196 70.93-8.196 22.88 0 44.64 2.438 65.39 6.856-13.66 52.57-27.28 116-37.28 187.8-14.54 104.3-24.58 215-31.05 300.6zm13.98 14.12c6.395-86.95 16.69-203.4 31.91-312.6 9.945-71.37 23.47-134.3 37-186.4 40.54 10.73 76.88 29.25 109.3 52.65-29.17 42.26-60.08 93.65-86.31 152-44.95 100-74.15 210.5-91.92 294.4zm10.96 21.05c17.12-84.86 46.89-203.1 94.64-309.3 25.73-57.23 56.02-107.7 84.62-149.1 34.91 27.27 65.06 60.07 90.76 94.5-116.2 84.47-215.9 218.4-270 363.9zm22.88-17.57c54.67-134 148.1-256.1 255.9-334.3 16.2 22.81 30.52 46.1 43.05 68.77-128.3 38.27-236.4 134.6-299 265.6zm15.6 13.8c26.2-56.39 61.04-106.3 102.5-147.6 11.19 11.1 44.8 45.89 83.76 99.83-35.71 28.59-66.48 62.62-92.73 98.12-30.22-20.36-61.54-37.32-93.52-50.36zm113.3-158c44.85-42.02 96.75-74.4 153.2-94.79 6.461 15.66 25.69 64.64 45.85 138.6-42.46 12.08-80.47 32.14-114.3 57.25-39.11-54.07-72.93-89.26-84.83-101.1zm189.9-126.8c-13.4-24.59-28.83-49.98-46.47-74.84 29.98-20.25 60.94-37.04 92.39-49.77 15.89 35.09 28.55 72.64 37.31 112.3-28.41 1.391-56.21 5.61-83.23 12.3zm39.57-138.2c-32.28 13.15-64.07 30.45-94.83 51.3-26.94-36.19-58.69-70.71-95.58-99.42 36.27-50.49 68.22-85.46 82.27-100.1 43.5 40.92 80.31 90.99 108.1 148.2zm-119.2-158.4c-14.56 15.2-46.76 50.55-83.22 101.3-34.23-24.68-72.69-44.24-115.7-55.59 19.09-69.77 37.27-117 44.47-134.7 56.64 18.5 108.9 48.86 154.5 89.02zm-168.8-93.5c-7.703 19.05-25.78 66.54-44.69 135.7-22.34-4.805-45.81-7.481-70.55-7.481-26.78 0-52.1 3.161-76.08 8.801-18.52-67.96-36.3-115.2-44.4-135.4 38.5-11.62 78.89-17.84 120.5-17.84 39.7 0 78.33 5.613 115.2 16.22zm-205.8 140.8c-42.45 12.08-80.47 32.14-114.3 57.25-38.15-52.75-71.3-87.55-83.95-100.2 45.24-41.03 97.35-72.38 154-91.7 7.668 19.01 25.55 66.11 44.23 134.6zm-209.2-32.73c11.86 11.82 44.9 46.3 83.08 99.14-35.71 28.58-66.48 62.62-92.72 98.12-30.7-20.69-62.54-37.87-95.05-50.98 26.98-56.21 62.6-105.6 104.7-146.3zm-1.992 220.8c97.78 70.69 182.5 177.4 237.3 298.1-63.85-112.8-163.3-195.6-279.3-230.8 12.25-22.14 26.22-44.89 41.98-67.24zm-109-60.89c31.64 12.7 62.64 29.36 92.55 49.45-17.16 24.35-32.24 49.14-45.35 73.16-27.06-6.844-54.92-11.2-83.39-12.71 8.559-38.77 20.83-75.5 36.2-109.9zm-27.72 494.8c-2.051 14.73-4.008 29.6-5.883 44.5h15.11c1.797-14.21 3.672-28.38 5.629-42.43 9.945-71.34 23.47-134.3 37.01-186.4 40.53 10.73 76.87 29.25 109.3 52.64-29.17 42.26-60.09 93.66-86.31 152-3.594 7.996-7.05 16.07-10.45 24.18h16.26c2.574-6.039 5.179-12.06 7.867-18.03 25.72-57.23 56.02-107.7 84.62-149.1 34.91 27.27 65.06 60.07 90.77 94.5-29.27 21.28-57.48 45.72-84.2 72.67h21.26c22.97-22.23 46.94-42.64 71.73-60.62 14.27 20.1 26.98 40.54 38.39 60.62h22.91c-13.06-23.75-27.91-48.16-44.91-72.11 29.82-20.14 60.6-36.85 91.87-49.56 16 36.42 28.44 75.41 36.71 116.5-16.46 0.778-32.7 2.594-48.72 5.18h138.7c-16.52-2.656-33.26-4.492-50.25-5.223 8.05-39.97 20.05-77.93 35.4-113.5 31.07 12.61 61.5 29.04 90.89 48.77-16.4 23.27-30.81 46.91-43.51 69.93h22.93c11.04-19.36 23.28-39.07 36.98-58.48 24.07 17.4 47.31 37.05 69.54 58.48h21.28c-25.99-26.18-53.49-49.88-82.09-70.58 25-33.74 54.21-66.04 87.95-93.17 27.69 40.06 57.12 89.14 82.56 145.7 2.684 5.968 5.297 11.99 7.867 18.03h16.26c-3.395-8.11-6.852-16.19-10.44-24.18-25.98-57.77-56.08-107.9-84.38-148.7 31.97-23.8 67.84-42.8 107.8-54.25 13.4 51.78 26.75 114.1 36.59 184.8 1.958 14.06 3.833 28.22 5.629 42.43h15.11c-1.875-14.9-3.832-29.77-5.887-44.5-9.922-71.2-23.4-134.1-36.94-186.5 22.41-5.25 46.01-8.195 70.93-8.195 0.528 0 1.032 0.039 1.555 0.042v-20c-0.523-3e-3 -1.027-0.042-1.555-0.042-26.78 0-52.09 3.16-76.07 8.8-19.97-73.3-39.11-122.6-46.14-139.7 37.73-12.11 77.33-18.98 118.1-19.85l5.083-0.105 0.562 0.012v-228c-1.656 19.62-3.156 38.48-4.496 56.23-5.551-73.53-13.75-165.5-25.16-256.1h-15.11c12.18 96.3 20.72 194.4 26.29 270.2-16.35-77.23-42.41-176.9-81.48-270.2h-16.26c42.53 99.86 69.77 207.8 86.02 287.6-40.1-108.6-104.5-209.2-182.3-287.6h-21.28c60.34 58.18 113 129.9 153 208.9-65.17-97.63-158.5-167.9-265.6-198.1 1.961-3.562 4.047-7.172 6.094-10.77h-22.93c-1.035 1.875-2.145 3.777-3.156 5.645-9.7-2.246-19.53-4.055-29.42-5.645h-138.6c-10.62 1.711-21.17 3.699-31.57 6.168-1.097-2.039-2.3-4.117-3.429-6.168h-22.91c2.165 3.805 4.36 7.621 6.422 11.39-130.5 37.54-240.3 134.9-303.2 268.4 42-105.5 108.2-203.9 186.7-279.8h-21.26c-79.33 80.05-145.4 182.4-185.8 291.3 16.16-80.09 43.6-189.9 86.77-291.3h-16.26c-39.06 93.33-65.12 193-81.47 270.2 5.57-75.78 14.11-173.9 26.29-270.2h-15.11c-8.656 68.71-15.46 138.2-20.66 199.9v228l5.594 0.14c37.88 0.969 74.7 7.168 110 17.89-6.211 14.96-25.89 64.68-46.56 140.3-21.86-4.703-44.84-7.332-69-7.442v20c22.3 0.11 43.57 2.5 63.84 6.813-13.66 52.57-27.28 116-37.29 187.8" fill="#c7a454"/>
     <path d="m850.4 349.1c10.87 0 19.68 9.204 19.68 20.56 0 11.36-8.808 20.56-19.68 20.56-10.86 0-19.68-9.203-19.68-20.56 0-11.35 8.813-20.56 19.68-20.56" fill="#c7a454"/>
     <path d="m752.5 246.8c0-12.11 9.395-21.93 20.99-21.93 11.59 0 20.99 9.816 20.99 21.93 0 12.11-9.395 21.92-20.99 21.92-11.59 0-20.99-9.816-20.99-21.92" fill="#c7a454"/>
     <path d="m636.9 155.7c-11.59 0-20.99-9.817-20.99-21.93 0-12.11 9.398-21.93 20.99-21.93 11.59 0 20.99 9.816 20.99 21.93 0 12.11-9.395 21.93-20.99 21.93" fill="#c7a454"/>
     <path d="m456.9 109.1c-11.59 0-20.99-9.817-20.99-21.93s9.394-21.93 20.99-21.93 20.99 9.816 20.99 21.93-9.398 21.93-20.99 21.93" fill="#c7a454"/>
     <path d="m75.96 388.7c-10.87 0-19.68-9.203-19.68-20.55 0-11.35 8.809-20.56 19.68-20.56 10.87 0 19.68 9.203 19.68 20.56 0 11.35-8.809 20.55-19.68 20.55" fill="#c7a454"/>
     <path d="m149.2 272c-11.59 0-20.99-9.817-20.99-21.93s9.398-21.93 20.99-21.93c11.59 0 20.99 9.817 20.99 21.93s-9.394 21.93-20.99 21.93" fill="#c7a454"/>
     <path d="m279.5 155.7c-11.59 0-20.99-9.817-20.99-21.93 0-12.11 9.399-21.93 20.99-21.93 11.59 0 20.99 9.816 20.99 21.93 0 12.11-9.399 21.93-20.99 21.93" fill="#c7a454"/>
     <path d="m925.8 528.4c-11.59 0-20.99-9.816-20.99-21.93 0-12.11 9.398-21.92 20.99-21.92 11.59 0 20.99 9.816 20.99 21.92 0 12.11-9.398 21.93-20.99 21.93" fill="#c7a454"/>
     <path d="m389.7 769.8c10.87 0 19.68 9.203 19.68 20.56 0 11.35-8.809 20.55-19.68 20.55s-19.68-9.203-19.68-20.55c0-11.35 8.808-20.56 19.68-20.56" fill="#c7a454"/>
     <path d="m291.8 667.5c0-12.11 9.398-21.93 20.99-21.93 11.59 0 20.99 9.817 20.99 21.93s-9.398 21.93-20.99 21.93c-11.59 0-20.99-9.817-20.99-21.93" fill="#c7a454"/>
     <path d="m176.2 576.4c-11.59 0-20.99-9.816-20.99-21.93 0-12.11 9.395-21.93 20.99-21.93 11.59 0 20.99 9.817 20.99 21.93 0 12.11-9.399 21.93-20.99 21.93" fill="#c7a454"/>
     <path d="m544.9 808c-10.87 0-19.68-9.203-19.68-20.56 0-11.35 8.809-20.55 19.68-20.55s19.68 9.203 19.68 20.55c0 11.35-8.812 20.56-19.68 20.56" fill="#c7a454"/>
     <path d="m618.2 691.3c-11.59 0-20.99-9.816-20.99-21.92 0-12.11 9.398-21.92 20.99-21.92 11.59 0 20.98 9.812 20.98 21.92 0 12.11-9.394 21.92-20.98 21.92" fill="#c7a454"/>
     <path d="m748.5 575c-11.59 0-20.99-9.816-20.99-21.92 0-12.11 9.395-21.92 20.99-21.92 11.59 0 20.99 9.816 20.99 21.92 0 12.11-9.399 21.92-20.99 21.92" fill="#c7a454"/>
     <path d="m-4.16 528.4c-11.59 0-20.99-9.816-20.99-21.93 0-12.11 9.398-21.92 20.99-21.92 11.59 0 20.99 9.816 20.99 21.92 0 12.11-9.398 21.93-20.99 21.93" fill="#c7a454"/>
    </g>
   </g>
  </pattern>
  <clipPath id="clipPath849">
   <path d="m0 838h930v-838h-930z"/>
  </clipPath>
 </defs>
 <metadata>
  <rdf:RDF>
   <cc:Work rdf:about="">
    <dc:format>image/svg+xml</dc:format>
    <dc:type rdf:resource="http://purl.org/dc/dcmitype/StillImage"/>
    <dc:title/>
   </cc:Work>
  </rdf:RDF>
 </metadata>
 <g transform="translate(-29.73 -36.71)">
  <path d="m72.09 36.71h-42.36v228.8h42.36z" fill="url(#pattern2632)"/>
 </g>
</svg>
