<?xml version="1.0" encoding="UTF-8"?>
<svg width="215.4mm" height="215.4mm" version="1.1" viewBox="0 0 215.4 215.4" xmlns="http://www.w3.org/2000/svg" xmlns:cc="http://creativecommons.org/ns#" xmlns:dc="http://purl.org/dc/elements/1.1/" xmlns:rdf="http://www.w3.org/1999/02/22-rdf-syntax-ns#">
 <metadata>
  <rdf:RDF>
   <cc:Work rdf:about="">
    <dc:format>image/svg+xml</dc:format>
    <dc:type rdf:resource="http://purl.org/dc/dcmitype/StillImage"/>
    <dc:title/>
   </cc:Work>
  </rdf:RDF>
 </metadata>
 <g transform="translate(14.53 -41.79)" shape-rendering="auto">
  <path d="m93.17 41.79c-59.45 0-107.7 48.25-107.7 107.7 0 59.45 48.25 107.7 107.7 107.7 59.45 0 107.7-48.25 107.7-107.7 0-59.45-48.25-107.7-107.7-107.7zm0 6c56.2 0 101.7 45.5 101.7 101.7 0 56.2-45.5 101.7-101.7 101.7-56.2 0-101.7-45.5-101.7-101.7 1e-7 -56.2 45.5-101.7 101.7-101.7z" color="#000000" color-rendering="auto" dominant-baseline="auto" image-rendering="auto" solid-color="#000000" stop-color="#000000" style="font-feature-settings:normal;font-variant-alternates:normal;font-variant-caps:normal;font-variant-east-asian:normal;font-variant-ligatures:normal;font-variant-numeric:normal;font-variant-position:normal;font-variation-settings:normal;inline-size:0;isolation:auto;mix-blend-mode:normal;paint-order:stroke fill markers;shape-margin:0;shape-padding:0;text-decoration-color:#000000;text-decoration-line:none;text-decoration-style:solid;text-indent:0;text-orientation:mixed;text-transform:none;white-space:normal"/>
  <path d="m93.17 61.7c-48.45 0-87.79 39.34-87.79 87.79s39.34 87.79 87.79 87.79c48.45 0 87.79-39.34 87.79-87.79s-39.34-87.79-87.79-87.79zm0 6c45.21 0 81.79 36.58 81.79 81.79 0 45.21-36.58 81.79-81.79 81.79-45.21 0-81.79-36.58-81.79-81.79 0-45.21 36.58-81.79 81.79-81.79z" color="#000000" color-rendering="auto" dominant-baseline="auto" image-rendering="auto" solid-color="#000000" stop-color="#000000" style="font-feature-settings:normal;font-variant-alternates:normal;font-variant-caps:normal;font-variant-east-asian:normal;font-variant-ligatures:normal;font-variant-numeric:normal;font-variant-position:normal;font-variation-settings:normal;inline-size:0;isolation:auto;mix-blend-mode:normal;paint-order:stroke fill markers;shape-margin:0;shape-padding:0;text-decoration-color:#000000;text-decoration-line:none;text-decoration-style:solid;text-indent:0;text-orientation:mixed;text-transform:none;white-space:normal"/>
  <path d="m93.17 83.14c-36.61 0-66.35 29.74-66.35 66.35 0 36.61 29.74 66.35 66.35 66.35 36.61 0 66.35-29.74 66.35-66.35 0-36.61-29.74-66.35-66.35-66.35zm0 6c33.37 0 60.35 26.98 60.35 60.35 0 33.37-26.98 60.35-60.35 60.35-33.37 0-60.35-26.98-60.35-60.35 0-33.37 26.98-60.35 60.35-60.35z" color="#000000" color-rendering="auto" dominant-baseline="auto" image-rendering="auto" solid-color="#000000" stop-color="#000000" style="font-feature-settings:normal;font-variant-alternates:normal;font-variant-caps:normal;font-variant-east-asian:normal;font-variant-ligatures:normal;font-variant-numeric:normal;font-variant-position:normal;font-variation-settings:normal;inline-size:0;isolation:auto;mix-blend-mode:normal;paint-order:stroke fill markers;shape-margin:0;shape-padding:0;text-decoration-color:#000000;text-decoration-line:none;text-decoration-style:solid;text-indent:0;text-orientation:mixed;text-transform:none;white-space:normal"/>
  <path d="m93.17 101.2c-26.62 0-48.26 21.64-48.26 48.26 0 26.62 21.64 48.26 48.26 48.26 26.62 0 48.26-21.64 48.26-48.26 0-26.62-21.64-48.26-48.26-48.26zm0 6c23.37 0 42.26 18.88 42.26 42.26s-18.88 42.26-42.26 42.26c-23.37 0-42.26-18.88-42.26-42.26s18.88-42.26 42.26-42.26z" color="#000000" color-rendering="auto" dominant-baseline="auto" image-rendering="auto" solid-color="#000000" stop-color="#000000" style="font-feature-settings:normal;font-variant-alternates:normal;font-variant-caps:normal;font-variant-east-asian:normal;font-variant-ligatures:normal;font-variant-numeric:normal;font-variant-position:normal;font-variation-settings:normal;inline-size:0;isolation:auto;mix-blend-mode:normal;paint-order:stroke fill markers;shape-margin:0;shape-padding:0;text-decoration-color:#000000;text-decoration-line:none;text-decoration-style:solid;text-indent:0;text-orientation:mixed;text-transform:none;white-space:normal"/>
  <path d="m93.17 119.7c-16.43 0-29.81 13.38-29.81 29.81s13.38 29.81 29.81 29.81c16.43 0 29.8-13.38 29.8-29.81s-13.38-29.81-29.8-29.81zm0 6c13.18 0 23.8 10.62 23.8 23.81s-10.62 23.81-23.8 23.81c-13.18 0-23.81-10.62-23.81-23.81s10.62-23.81 23.81-23.81z" color="#000000" color-rendering="auto" dominant-baseline="auto" image-rendering="auto" solid-color="#000000" stop-color="#000000" style="font-feature-settings:normal;font-variant-alternates:normal;font-variant-caps:normal;font-variant-east-asian:normal;font-variant-ligatures:normal;font-variant-numeric:normal;font-variant-position:normal;font-variation-settings:normal;inline-size:0;isolation:auto;mix-blend-mode:normal;paint-order:stroke fill markers;shape-margin:0;shape-padding:0;text-decoration-color:#000000;text-decoration-line:none;text-decoration-style:solid;text-indent:0;text-orientation:mixed;text-transform:none;white-space:normal"/>
 </g>
</svg>
