<?xml version="1.0" encoding="UTF-8" standalone="no"?>
<svg
   xmlns:dc="http://purl.org/dc/elements/1.1/"
   xmlns:cc="http://creativecommons.org/ns#"
   xmlns:rdf="http://www.w3.org/1999/02/22-rdf-syntax-ns#"
   xmlns:svg="http://www.w3.org/2000/svg"
   xmlns="http://www.w3.org/2000/svg"
   xmlns:sodipodi="http://sodipodi.sourceforge.net/DTD/sodipodi-0.dtd"
   xmlns:inkscape="http://www.inkscape.org/namespaces/inkscape"
   width="62.814693mm"
   height="37.453533mm"
   version="1.1"
   viewBox="0 0 62.814691 37.453533"
   id="svg276"
   sodipodi:docname="footer_frame.svg"
   inkscape:version="1.0.2 (e86c870879, 2021-01-15, custom)">
  <sodipodi:namedview
     pagecolor="#ffffff"
     bordercolor="#666666"
     borderopacity="1"
     objecttolerance="10"
     gridtolerance="10"
     guidetolerance="10"
     inkscape:pageopacity="0"
     inkscape:pageshadow="2"
     inkscape:window-width="1620"
     inkscape:window-height="1018"
     id="namedview278"
     showgrid="false"
     inkscape:zoom="1.5422672"
     inkscape:cx="68.582522"
     inkscape:cy="126.31213"
     inkscape:window-x="-6"
     inkscape:window-y="-6"
     inkscape:window-maximized="1"
     inkscape:current-layer="svg276" />
  <defs
     id="defs218">
    <clipPath
       id="clipPath3542">
      <path
         d="m 2143,2838 h -584.3 v 12 H 2131 v 108.4 h 110 v 618.3 h -110 v 108.4 h -572.3 v 12 H 2143 v -108.4 h 109.9 V 2946.4 H 2143 Z"
         id="path2" />
    </clipPath>
    <linearGradient
       id="linearGradient3558"
       x2="1"
       gradientTransform="matrix(-590,-210,-210,590,1846,3266)"
       gradientUnits="userSpaceOnUse">
      <stop
         stop-color="#bb7239"
         offset="0"
         id="stop5" />
      <stop
         stop-color="#fceeae"
         offset=".2275"
         id="stop7" />
      <stop
         stop-color="#e09e5b"
         offset=".5216"
         id="stop9" />
      <stop
         stop-color="#fce9a4"
         offset=".7529"
         id="stop11" />
      <stop
         stop-color="#f1d693"
         offset=".8275"
         id="stop13" />
      <stop
         stop-color="#e1bd7c"
         offset=".9216"
         id="stop15" />
      <stop
         stop-color="#d08a4a"
         offset="1"
         id="stop17" />
    </linearGradient>
    <clipPath
       id="clipPath3568">
      <path
         d="M 1411,2838 H 816.7 v 108.4 H 706.8 v 642.3 h 109.9 v 108.4 H 1411 v -12 H 828.7 V 3576.7 H 718.8 V 2958.4 H 828.7 V 2850 H 1411 Z"
         id="path20" />
    </clipPath>
    <linearGradient
       id="linearGradient3584"
       x2="1"
       gradientTransform="matrix(-590,-210,-210,590,1763,3499)"
       gradientUnits="userSpaceOnUse">
      <stop
         stop-color="#bb7239"
         offset="0"
         id="stop23" />
      <stop
         stop-color="#fceeae"
         offset=".2275"
         id="stop25" />
      <stop
         stop-color="#e09e5b"
         offset=".5216"
         id="stop27" />
      <stop
         stop-color="#fce9a4"
         offset=".7529"
         id="stop29" />
      <stop
         stop-color="#f1d693"
         offset=".8275"
         id="stop31" />
      <stop
         stop-color="#e1bd7c"
         offset=".9216"
         id="stop33" />
      <stop
         stop-color="#d08a4a"
         offset="1"
         id="stop35" />
    </linearGradient>
    <clipPath
       id="clipPath3594">
      <path
         d="m 778.6,3540 h 87.95 v 86.38 H 778.6 Z m 109.9,-22 H 756.6 v 130.4 h 131.9 z"
         id="path38" />
    </clipPath>
    <linearGradient
       id="linearGradient3610"
       x2="1"
       gradientTransform="matrix(131.9,0,0,-131.9,756.6,3583)"
       gradientUnits="userSpaceOnUse">
      <stop
         stop-color="#b96639"
         offset="0"
         id="stop41" />
      <stop
         stop-color="#fceeae"
         offset=".2275"
         id="stop43" />
      <stop
         stop-color="#d67739"
         offset=".5216"
         id="stop45" />
      <stop
         stop-color="#fce9a4"
         offset=".7529"
         id="stop47" />
      <stop
         stop-color="#f1d693"
         offset=".8275"
         id="stop49" />
      <stop
         stop-color="#e1bd7c"
         offset=".9216"
         id="stop51" />
      <stop
         stop-color="#da8a43"
         offset="1"
         id="stop53" />
    </linearGradient>
    <clipPath
       id="clipPath3620">
      <path
         d="m 2093,2910 h 87.94 v 86.38 H 2093 Z m 110,-22 h -132 v 130.4 h 132 z"
         id="path56" />
    </clipPath>
    <linearGradient
       id="linearGradient3636"
       x2="1"
       gradientTransform="matrix(131.9,0,0,-131.9,2071,2953)"
       gradientUnits="userSpaceOnUse">
      <stop
         stop-color="#b96639"
         offset="0"
         id="stop59" />
      <stop
         stop-color="#fceeae"
         offset=".2275"
         id="stop61" />
      <stop
         stop-color="#d67739"
         offset=".5216"
         id="stop63" />
      <stop
         stop-color="#fce9a4"
         offset=".7529"
         id="stop65" />
      <stop
         stop-color="#f1d693"
         offset=".8275"
         id="stop67" />
      <stop
         stop-color="#e1bd7c"
         offset=".9216"
         id="stop69" />
      <stop
         stop-color="#da8a43"
         offset="1"
         id="stop71" />
    </linearGradient>
    <clipPath
       id="clipPath3646">
      <path
         d="m 668.7,3648 h 87.94 v 86.38 H 668.7 Z m 109.9,-22 H 646.7 v 130.4 h 131.9 z"
         id="path74" />
    </clipPath>
    <linearGradient
       id="linearGradient3662"
       x2="1"
       gradientTransform="matrix(1190,-1223,-1223,-1190,637,3769)"
       gradientUnits="userSpaceOnUse">
      <stop
         stop-color="#bb7239"
         offset="0"
         id="stop77" />
      <stop
         stop-color="#fceeae"
         offset=".2275"
         id="stop79" />
      <stop
         stop-color="#e09e5b"
         offset=".5216"
         id="stop81" />
      <stop
         stop-color="#fce9a4"
         offset=".7529"
         id="stop83" />
      <stop
         stop-color="#f1d693"
         offset=".8275"
         id="stop85" />
      <stop
         stop-color="#e1bd7c"
         offset=".9216"
         id="stop87" />
      <stop
         stop-color="#d08a4a"
         offset="1"
         id="stop89" />
    </linearGradient>
    <clipPath
       id="clipPath3672">
      <path
         d="m 1442,3693 37.77,-37.24 37.78,37.24 -37.78,37.24 z m 37.77,-68.13 -69.11,68.13 69.11,68.13 69.11,-68.13 z"
         id="path92" />
    </clipPath>
    <linearGradient
       id="linearGradient3688"
       x2="1"
       gradientTransform="matrix(1190,-1223,-1223,-1190,1032,4153)"
       gradientUnits="userSpaceOnUse">
      <stop
         stop-color="#bb7239"
         offset="0"
         id="stop95" />
      <stop
         stop-color="#fceeae"
         offset=".2275"
         id="stop97" />
      <stop
         stop-color="#e09e5b"
         offset=".5216"
         id="stop99" />
      <stop
         stop-color="#fce9a4"
         offset=".7529"
         id="stop101" />
      <stop
         stop-color="#f1d693"
         offset=".8275"
         id="stop103" />
      <stop
         stop-color="#e1bd7c"
         offset=".9216"
         id="stop105" />
      <stop
         stop-color="#d08a4a"
         offset="1"
         id="stop107" />
    </linearGradient>
    <clipPath
       id="clipPath3698">
      <path
         d="m 2203,3648 h 87.94 v 86.38 H 2203 Z m 109.9,-22 h -132 v 130.4 h 132 z"
         id="path110" />
    </clipPath>
    <linearGradient
       id="linearGradient3714"
       x2="1"
       gradientTransform="matrix(1190,-1223,-1223,-1190,1425,4536)"
       gradientUnits="userSpaceOnUse">
      <stop
         stop-color="#bb7239"
         offset="0"
         id="stop113" />
      <stop
         stop-color="#fceeae"
         offset=".2275"
         id="stop115" />
      <stop
         stop-color="#e09e5b"
         offset=".5216"
         id="stop117" />
      <stop
         stop-color="#fce9a4"
         offset=".7529"
         id="stop119" />
      <stop
         stop-color="#f1d693"
         offset=".8275"
         id="stop121" />
      <stop
         stop-color="#e1bd7c"
         offset=".9216"
         id="stop123" />
      <stop
         stop-color="#d08a4a"
         offset="1"
         id="stop125" />
    </linearGradient>
    <clipPath
       id="clipPath3724">
      <path
         d="m 2203,2801 h 87.94 v 86.38 H 2203 Z m 109.9,-22 h -132 v 130.4 h 132 z"
         id="path128" />
    </clipPath>
    <linearGradient
       id="linearGradient3740"
       x2="1"
       gradientTransform="matrix(1190,-1223,-1223,-1190,1002,4124)"
       gradientUnits="userSpaceOnUse">
      <stop
         stop-color="#bb7239"
         offset="0"
         id="stop131" />
      <stop
         stop-color="#fceeae"
         offset=".2275"
         id="stop133" />
      <stop
         stop-color="#e09e5b"
         offset=".5216"
         id="stop135" />
      <stop
         stop-color="#fce9a4"
         offset=".7529"
         id="stop137" />
      <stop
         stop-color="#f1d693"
         offset=".8275"
         id="stop139" />
      <stop
         stop-color="#e1bd7c"
         offset=".9216"
         id="stop141" />
      <stop
         stop-color="#d08a4a"
         offset="1"
         id="stop143" />
    </linearGradient>
    <clipPath
       id="clipPath3750">
      <path
         d="m 1602,3648 h 469 v 86.38 h -469 l -43.81,-43.19 z m 491,-108.4 h 87.94 v 86.38 H 2093 Z m 110,-521.9 h 87.94 v 499.9 H 2203 Z m -110,-108.4 h 87.94 v 86.38 H 2093 Z m -491,-108.4 h 469 v 86.38 h -469 l -43.81,-43.19 z m 491,-22 h -500 l -66.13,65.19 66.13,65.19 h 478 v 108.4 h 109.9 v 499.9 H 2071 v 108.4 h -478 l -66.13,65.19 66.13,65.19 h 500 v -108.4 h 110 v -108.4 h 109.9 v -543.9 H 2203 v -108.4 h -110 z"
         id="path146" />
    </clipPath>
    <linearGradient
       id="linearGradient3766"
       x2="1"
       gradientTransform="matrix(1190,-1223,-1223,-1190,1008,4130)"
       gradientUnits="userSpaceOnUse">
      <stop
         stop-color="#bb7239"
         offset="0"
         id="stop149" />
      <stop
         stop-color="#fceeae"
         offset=".2275"
         id="stop151" />
      <stop
         stop-color="#e09e5b"
         offset=".5216"
         id="stop153" />
      <stop
         stop-color="#fce9a4"
         offset=".7529"
         id="stop155" />
      <stop
         stop-color="#f1d693"
         offset=".8275"
         id="stop157" />
      <stop
         stop-color="#e1bd7c"
         offset=".9216"
         id="stop159" />
      <stop
         stop-color="#d08a4a"
         offset="1"
         id="stop161" />
    </linearGradient>
    <clipPath
       id="clipPath3776">
      <path
         d="m 1442,2843 37.77,-37.24 37.78,37.24 -37.78,37.24 z m 37.77,-68.13 -69.11,68.13 69.11,68.13 69.11,-68.13 z"
         id="path164" />
    </clipPath>
    <linearGradient
       id="linearGradient3792"
       x2="1"
       gradientTransform="matrix(1190,-1223,-1223,-1190,606.9,3740)"
       gradientUnits="userSpaceOnUse">
      <stop
         stop-color="#bb7239"
         offset="0"
         id="stop167" />
      <stop
         stop-color="#fceeae"
         offset=".2275"
         id="stop169" />
      <stop
         stop-color="#e09e5b"
         offset=".5216"
         id="stop171" />
      <stop
         stop-color="#fce9a4"
         offset=".7529"
         id="stop173" />
      <stop
         stop-color="#f1d693"
         offset=".8275"
         id="stop175" />
      <stop
         stop-color="#e1bd7c"
         offset=".9216"
         id="stop177" />
      <stop
         stop-color="#d08a4a"
         offset="1"
         id="stop179" />
    </linearGradient>
    <clipPath
       id="clipPath3802">
      <path
         d="m 668.7,2801 h 87.94 v 86.38 H 668.7 Z m 109.9,-22 H 646.7 v 130.4 h 131.9 z"
         id="path182" />
    </clipPath>
    <linearGradient
       id="linearGradient3818"
       x2="1"
       gradientTransform="matrix(1190,-1223,-1223,-1190,213.6,3358)"
       gradientUnits="userSpaceOnUse">
      <stop
         stop-color="#bb7239"
         offset="0"
         id="stop185" />
      <stop
         stop-color="#fceeae"
         offset=".2275"
         id="stop187" />
      <stop
         stop-color="#e09e5b"
         offset=".5216"
         id="stop189" />
      <stop
         stop-color="#fce9a4"
         offset=".7529"
         id="stop191" />
      <stop
         stop-color="#f1d693"
         offset=".8275"
         id="stop193" />
      <stop
         stop-color="#e1bd7c"
         offset=".9216"
         id="stop195" />
      <stop
         stop-color="#d08a4a"
         offset="1"
         id="stop197" />
    </linearGradient>
    <clipPath
       id="clipPath3828">
      <path
         d="m 888.6,3648 h 469 l 43.82,43.19 -43.82,43.19 h -469 z M 778.7,3539.6 h 87.95 v 86.38 H 778.7 Z M 668.8,3017.7 h 87.94 v 499.9 H 668.8 Z m 109.9,-108.4 h 87.95 v 86.38 H 778.7 Z m 109.9,-108.4 h 469 l 43.82,43.19 -43.82,43.19 h -469 z m 478,-22 h -500 v 108.4 H 756.7 v 108.4 H 646.8 v 543.9 H 756.7 V 3648 h 109.9 v 108.4 h 500 l 66.13,-65.19 -66.13,-65.19 h -478 v -108.4 H 778.7 v -499.9 h 109.9 v -108.4 h 478 l 66.13,-65.19 z"
         id="path200" />
    </clipPath>
    <linearGradient
       id="linearGradient3844"
       x2="1"
       gradientTransform="matrix(1190,-1223,-1223,-1190,631.2,3764)"
       gradientUnits="userSpaceOnUse">
      <stop
         stop-color="#bb7239"
         offset="0"
         id="stop203" />
      <stop
         stop-color="#fceeae"
         offset=".2275"
         id="stop205" />
      <stop
         stop-color="#e09e5b"
         offset=".5216"
         id="stop207" />
      <stop
         stop-color="#fce9a4"
         offset=".7529"
         id="stop209" />
      <stop
         stop-color="#f1d693"
         offset=".8275"
         id="stop211" />
      <stop
         stop-color="#e1bd7c"
         offset=".9216"
         id="stop213" />
      <stop
         stop-color="#d08a4a"
         offset="1"
         id="stop215" />
    </linearGradient>
    <clipPath
       clipPathUnits="userSpaceOnUse"
       id="clipPath2950">
      <path
         d="M 28441,4143.8 28293.1,3996 V 2915.5 h -600.4 V 2311.1 H 26636.8 L 26493,2167.2 h -5048.3 v 2156.5 l 147.9,147.9 V 5552 h 600.4 v 604.49 h 1055.9 l 143.9,143.83 H 28441 Z m 0,-1228.3 h -97.6 v 1059.6 l 97.6,97.6 z m 0,-748.3 h -677.9 v 628.1 l 462.8,-462.8 49.8,49.8 -462.8,462.8 h 628.1 z m -748.3,0 h -1128.6 l 93.5,93.6 h 1035.1 z m -6304.1,-155.7 h -100.4 v 100.4 h 100.4 z M 21542.3,5552 V 4492.4 l -97.6,-97.5 V 5552 Z m -97.6,748.32 h 677.9 V 5672.3 l -462.8,462.74 -49.8,-49.81 462.8,-462.73 h -628.1 z m 1876.9,0 -93.5,-93.5 H 22193 v 93.5 z m 5182.9,143.31 h 80.5 v -80.51 h -80.5 z m 143.3,-143.31 v 206.11 h -206.1 V 6360.7 H 22193 v 120.56 h -70.4 V 6360.7 h -738.2 V 5622.5 H 21263 V 5552 h 121.4 V 2162.2 h -146.5 v -201 h 201.1 v 145.7 h 6253.7 v -120.6 h 70.4 v 120.6 h 738.2 v 738.2 h 121.4 v 70.4 h -121.4 v 3384.82 z"
         id="path2948" />
    </clipPath>
    <linearGradient
       x1="0"
       y1="0"
       x2="1"
       y2="0"
       gradientUnits="userSpaceOnUse"
       gradientTransform="matrix(3864.31,-1861.71,-1861.71,-3864.31,23072,5135.1)"
       spreadMethod="pad"
       id="linearGradient2960">
      <stop
         style="stop-opacity:1;stop-color:#a87244"
         offset="0"
         id="stop2954" />
      <stop
         style="stop-opacity:1;stop-color:#f7e5a8"
         offset="0.505405"
         id="stop2956" />
      <stop
         style="stop-opacity:1;stop-color:#de9561"
         offset="1"
         id="stop2958" />
    </linearGradient>
    <clipPath
       clipPathUnits="userSpaceOnUse"
       id="clipPath2970">
      <path
         d="m 28597.5,4534 -4.6,4.6 -452.9,-452.9 V 2872.6 l 186.2,-404.2 -189.3,-189.2 -401.6,184.9 h -1213.1 l -452.6,-452.6 H 21590.5 V 2313 h -302.3 v 1620.6 l 4.6,-4.6 452.9,452.9 V 5595 l -186.2,404.16 189.3,189.27 401.6,-184.95 h 1213.1 l 452.7,452.62 h 4479 v -301.49 h 302.3 z m 0,-1794.3 -218.2,-218.2 -168.8,366.5 v 1168.5 l 387,387 z m -728.3,-728.2 h -1700 l 382.2,382.2 h 1168.4 l 364,-167.6 z m -6581,3716.3 218.2,218.25 168.8,-366.55 V 4411.1 l -387,-387 z m 728.3,728.3 h 1700.1 l -382.2,-382.18 h -1168.5 l -364,167.6 z m 6329.1,-251.18 v 301.51 h -6350 L 21237.9,5748.7 V 2262.6 h 302.2 v -301.4 h 6350 l 757.7,757.7 v 3486.02 z"
         id="path2968" />
    </clipPath>
    <linearGradient
       x1="0"
       y1="0"
       x2="1"
       y2="0"
       gradientUnits="userSpaceOnUse"
       gradientTransform="matrix(-1761.08,-2535.96,-2535.96,1761.08,25962.8,5702.6)"
       spreadMethod="pad"
       id="linearGradient2980">
      <stop
         style="stop-opacity:1;stop-color:#a87244"
         offset="0"
         id="stop2974" />
      <stop
         style="stop-opacity:1;stop-color:#f7e5a8"
         offset="0.505405"
         id="stop2976" />
      <stop
         style="stop-opacity:1;stop-color:#de9561"
         offset="1"
         id="stop2978" />
    </linearGradient>
    <clipPath
       clipPathUnits="userSpaceOnUse"
       id="clipPath2990">
      <path
         d="m 21552,6192.35 h -263.8 v 263.75 h 263.8 z m 50.3,314.08 h -364.4 v -364.39 h 364.4 z"
         id="path2988" />
    </clipPath>
    <linearGradient
       x1="0"
       y1="0"
       x2="1"
       y2="0"
       gradientUnits="userSpaceOnUse"
       gradientTransform="matrix(-1761.09,-2535.97,-2535.97,1761.09,22606.8,8033.13)"
       spreadMethod="pad"
       id="linearGradient3000">
      <stop
         style="stop-opacity:1;stop-color:#a87244"
         offset="0"
         id="stop2994" />
      <stop
         style="stop-opacity:1;stop-color:#f7e5a8"
         offset="0.505405"
         id="stop2996" />
      <stop
         style="stop-opacity:1;stop-color:#de9561"
         offset="1"
         id="stop2998" />
    </linearGradient>
    <clipPath
       clipPathUnits="userSpaceOnUse"
       id="clipPath3010">
      <path
         d="m 28333.8,2275.2 h 263.7 v -263.7 h -263.7 z m -50.4,-314 h 364.4 v 364.3 h -364.4 z"
         id="path3008" />
    </clipPath>
    <linearGradient
       x1="0"
       y1="0"
       x2="1"
       y2="0"
       gradientUnits="userSpaceOnUse"
       gradientTransform="matrix(-1761.09,-2535.97,-2535.97,1761.09,29318.8,3372)"
       spreadMethod="pad"
       id="linearGradient3020">
      <stop
         style="stop-opacity:1;stop-color:#a87244"
         offset="0"
         id="stop3014" />
      <stop
         style="stop-opacity:1;stop-color:#f7e5a8"
         offset="0.505405"
         id="stop3016" />
      <stop
         style="stop-opacity:1;stop-color:#de9561"
         offset="1"
         id="stop3018" />
    </linearGradient>
  </defs>
  <metadata
     id="metadata220">
    <rdf:RDF>
      <cc:Work
         rdf:about="">
        <dc:format>image/svg+xml</dc:format>
        <dc:type
           rdf:resource="http://purl.org/dc/dcmitype/StillImage" />
        <dc:title />
      </cc:Work>
    </rdf:RDF>
  </metadata>
  <g
     id="g9824"
     transform="matrix(0.89142857,0,0,0.86650843,-138.93157,-112.73424)">
    <g
       id="g2944"
       transform="matrix(0.00950968,0,0,-0.00950968,-46.112906,191.97561)">
      <g
         id="g2946"
         clip-path="url(#clipPath2950)">
        <g
           id="g2952"
           transform="scale(1.75753)">
          <path
             d="m 16182.3,2357.74 -84.1,-84.1 v -614.78 h -341.6 v -343.89 h -600.8 l -81.8,-81.88 h -2872.4 v 1227 l 84.1,84.16 v 614.72 h 341.7 v 343.95 h 600.7 l 81.9,81.83 h 2872.3 z m 0,-698.88 h -55.5 v 602.89 l 55.5,55.53 z m 0,-425.77 h -385.7 v 357.38 l 263.3,-263.33 28.4,28.34 -263.3,263.32 h 357.3 z m -425.7,0 h -642.2 l 53.2,53.26 h 589 z m -3586.9,-88.59 h -57.2 v 57.13 h 57.2 z m 87.4,2014.47 v -602.89 l -55.5,-55.47 v 658.36 z m -55.5,425.78 h 385.7 v -357.33 l -263.3,263.29 -28.4,-28.34 263.4,-263.28 h -357.4 z m 1067.9,0 -53.2,-53.2 h -588.9 v 53.2 z m 2949,81.54 h 45.8 v -45.81 h -45.8 z m 81.5,-81.54 v 117.27 h -117.3 v -82.92 h -3555.3 v 68.6 h -40.1 v -68.6 h -420 v -420.01 h -69.1 v -40.12 h 69.1 V 1230.25 h -83.4 v -114.37 h 114.4 v 82.9 h 3558.3 v -68.62 h 40 v 68.62 h 420 v 420.02 h 69.1 v 40.06 h -69.1 v 1925.89 h 83.4"
             style="fill:url(#linearGradient2960);fill-opacity:1;fill-rule:nonzero;stroke:none"
             id="path2962" />
        </g>
      </g>
    </g>
    <g
       id="g2964"
       transform="matrix(0.00950968,0,0,-0.00950968,-46.112906,191.97561)">
      <g
         id="g2966"
         clip-path="url(#clipPath2970)">
        <g
           id="g2972"
           transform="scale(1.75753)">
          <path
             d="m 16271.4,2579.75 -2.6,2.62 -257.7,-257.69 v -690.23 l 105.9,-229.98 -107.7,-107.65 -228.5,105.2 h -690.2 l -257.5,-257.52 h -2548.6 v 171.55 h -172 v 922.09 l 2.7,-2.62 257.7,257.69 v 690.23 l -106,229.96 107.7,107.69 228.5,-105.24 h 690.2 l 257.6,257.54 h 2548.5 v -171.55 h 172 z m 0,-1020.92 -124.2,-124.15 -96,208.53 v 664.85 l 220.2,220.2 z M 15857,1144.5 h -967.3 l 217.5,217.46 h 664.8 l 207.1,-95.35 z m -3744.5,2114.5 124.2,124.18 96,-208.56 v -664.8 l -220.2,-220.19 z m 414.4,414.39 h 967.4 l -217.5,-217.46 h -664.9 l -207.1,95.36 z m 3601.2,-142.92 v 171.55 H 12515 l -431.1,-431.13 V 1287.37 h 172 v -171.49 h 3613 L 16300,1547 v 1983.47 h -171.9"
             style="fill:url(#linearGradient2980);fill-opacity:1;fill-rule:nonzero;stroke:none"
             id="path2982" />
        </g>
      </g>
    </g>
    <g
       id="g2984"
       transform="matrix(0.00950968,0,0,-0.00950968,-46.112906,191.97561)">
      <g
         id="g2986"
         clip-path="url(#clipPath2990)">
        <g
           id="g2992"
           transform="scale(1.32529)">
          <path
             d="m 16262,4672.43 h -199 v 199.02 h 199 z m 38,236.99 h -275 v -274.95 h 275 v 274.95"
             style="fill:url(#linearGradient3000);fill-opacity:1;fill-rule:nonzero;stroke:none"
             id="path3002" />
        </g>
      </g>
    </g>
    <g
       id="g3004"
       transform="matrix(0.00950968,0,0,-0.00950968,-46.112906,191.97561)">
      <g
         id="g3006"
         clip-path="url(#clipPath3010)">
        <g
           id="g3012"
           transform="scale(1.75753)">
          <path
             d="m 16121.3,1294.54 h 150.1 V 1144.5 h -150.1 z m -28.6,-178.66 h 207.3 v 207.28 h -207.3 v -207.28"
             style="fill:url(#linearGradient3020);fill-opacity:1;fill-rule:nonzero;stroke:none"
             id="path3022" />
        </g>
      </g>
    </g>
  </g>
</svg>
