<?xml version="1.0" encoding="UTF-8" standalone="no"?>
<svg
   xmlns:dc="http://purl.org/dc/elements/1.1/"
   xmlns:cc="http://creativecommons.org/ns#"
   xmlns:rdf="http://www.w3.org/1999/02/22-rdf-syntax-ns#"
   xmlns:svg="http://www.w3.org/2000/svg"
   xmlns="http://www.w3.org/2000/svg"
   xmlns:xlink="http://www.w3.org/1999/xlink"
   xmlns:sodipodi="http://sodipodi.sourceforge.net/DTD/sodipodi-0.dtd"
   xmlns:inkscape="http://www.inkscape.org/namespaces/inkscape"
   width="28.950169mm"
   height="228.77364mm"
   version="1.1"
   viewBox="0 0 28.950168 228.77363"
   id="svg53"
   sodipodi:docname="pattern1.svg"
   inkscape:version="1.0.2 (e86c870879, 2021-01-15, custom)">
  <sodipodi:namedview
     pagecolor="#ffffff"
     bordercolor="#666666"
     borderopacity="1"
     objecttolerance="10"
     gridtolerance="10"
     guidetolerance="10"
     inkscape:pageopacity="0"
     inkscape:pageshadow="2"
     inkscape:window-width="1620"
     inkscape:window-height="1018"
     id="namedview55"
     showgrid="false"
     inkscape:zoom="0.84995082"
     inkscape:cx="35.965622"
     inkscape:cy="445.87325"
     inkscape:window-x="-6"
     inkscape:window-y="-6"
     inkscape:window-maximized="1"
     inkscape:current-layer="svg53" />
  <defs
     id="defs45">
    <pattern
       id="pattern2632"
       patternTransform="matrix(.4575 0 0 -.4575 29.73 228.4)"
       xlink:href="#pattern2626" />
    <pattern
       id="pattern2626"
       patternTransform="matrix(1.729 0 0 -1.729 328.2 471.2)"
       xlink:href="#pattern1078" />
    <pattern
       id="pattern1078"
       patternTransform="matrix(.4575 0 0 -.4575 18.49 224.7)"
       xlink:href="#pattern889" />
    <pattern
       id="pattern889"
       width="93"
       height="83.7838"
       patternTransform="matrix(10,0,0,10,0,811)"
       patternUnits="userSpaceOnUse">
      <g
         transform="scale(.1)"
         id="g39">
        <g
           clip-path="url(#clipPath849)"
           id="g37">
          <path
             d="m83.59 589.6c21-76.73 40.9-126.3 46.28-139.1 56.61 19.45 108.8 50.86 154.1 91.97-13.77 14.26-46.9 50.22-84.64 102.7-34.23-24.68-72.68-44.24-115.7-55.59zm127.7 64.58c37.46-52.15 70.29-87.71 83.57-101.4 43.02 41.61 79.25 92.23 106.4 149.7-32.14 13.13-63.78 30.37-94.41 51.13-26.94-36.18-58.69-70.7-95.59-99.41zm-39.33-306.9c25-33.74 54.21-66.04 87.95-93.18 27.69 40.06 57.13 89.14 82.57 145.7 47.07 104.7 76.65 221 93.89 305.6-53.48-144.9-150.1-275.4-264.4-358.1zm184.2 46.39c-25.98-57.78-56.07-107.9-84.38-148.7 31.98-23.8 67.84-42.8 107.8-54.26 13.4 51.78 26.75 114.1 36.59 184.8 15.23 109.3 25.53 225.7 31.91 312.7-17.77-83.94-46.96-194.4-91.92-294.4zm105.9 280.3c-6.461-85.62-16.51-196.3-31.04-300.6-9.926-71.21-23.41-134.2-36.95-186.5 22.41-5.25 46.01-8.196 70.93-8.196 22.88 0 44.64 2.438 65.39 6.856-13.66 52.57-27.28 116-37.28 187.8-14.54 104.3-24.58 215-31.05 300.6zm13.98 14.12c6.395-86.95 16.69-203.4 31.91-312.6 9.945-71.37 23.47-134.3 37-186.4 40.54 10.73 76.88 29.25 109.3 52.65-29.17 42.26-60.08 93.65-86.31 152-44.95 100-74.15 210.5-91.92 294.4zm10.96 21.05c17.12-84.86 46.89-203.1 94.64-309.3 25.73-57.23 56.02-107.7 84.62-149.1 34.91 27.27 65.06 60.07 90.76 94.5-116.2 84.47-215.9 218.4-270 363.9zm22.88-17.57c54.67-134 148.1-256.1 255.9-334.3 16.2 22.81 30.52 46.1 43.05 68.77-128.3 38.27-236.4 134.6-299 265.6zm15.6 13.8c26.2-56.39 61.04-106.3 102.5-147.6 11.19 11.1 44.8 45.89 83.76 99.83-35.71 28.59-66.48 62.62-92.73 98.12-30.22-20.36-61.54-37.32-93.52-50.36zm113.3-158c44.85-42.02 96.75-74.4 153.2-94.79 6.461 15.66 25.69 64.64 45.85 138.6-42.46 12.08-80.47 32.14-114.3 57.25-39.11-54.07-72.93-89.26-84.83-101.1zm189.9-126.8c-13.4-24.59-28.83-49.98-46.47-74.84 29.98-20.25 60.94-37.04 92.39-49.77 15.89 35.09 28.55 72.64 37.31 112.3-28.41 1.391-56.21 5.61-83.23 12.3zm39.57-138.2c-32.28 13.15-64.07 30.45-94.83 51.3-26.94-36.19-58.69-70.71-95.58-99.42 36.27-50.49 68.22-85.46 82.27-100.1 43.5 40.92 80.31 90.99 108.1 148.2zm-119.2-158.4c-14.56 15.2-46.76 50.55-83.22 101.3-34.23-24.68-72.69-44.24-115.7-55.59 19.09-69.77 37.27-117 44.47-134.7 56.64 18.5 108.9 48.86 154.5 89.02zm-168.8-93.5c-7.703 19.05-25.78 66.54-44.69 135.7-22.34-4.805-45.81-7.481-70.55-7.481-26.78 0-52.1 3.161-76.08 8.801-18.52-67.96-36.3-115.2-44.4-135.4 38.5-11.62 78.89-17.84 120.5-17.84 39.7 0 78.33 5.613 115.2 16.22zm-205.8 140.8c-42.45 12.08-80.47 32.14-114.3 57.25-38.15-52.75-71.3-87.55-83.95-100.2 45.24-41.03 97.35-72.38 154-91.7 7.668 19.01 25.55 66.11 44.23 134.6zm-209.2-32.73c11.86 11.82 44.9 46.3 83.08 99.14-35.71 28.58-66.48 62.62-92.72 98.12-30.7-20.69-62.54-37.87-95.05-50.98 26.98-56.21 62.6-105.6 104.7-146.3zm-1.992 220.8c97.78 70.69 182.5 177.4 237.3 298.1-63.85-112.8-163.3-195.6-279.3-230.8 12.25-22.14 26.22-44.89 41.98-67.24zm-109-60.89c31.64 12.7 62.64 29.36 92.55 49.45-17.16 24.35-32.24 49.14-45.35 73.16-27.06-6.844-54.92-11.2-83.39-12.71 8.559-38.77 20.83-75.5 36.2-109.9zm-27.72 494.8c-2.051 14.73-4.008 29.6-5.883 44.5h15.11c1.797-14.21 3.672-28.38 5.629-42.43 9.945-71.34 23.47-134.3 37.01-186.4 40.53 10.73 76.87 29.25 109.3 52.64-29.17 42.26-60.09 93.66-86.31 152-3.594 7.996-7.05 16.07-10.45 24.18h16.26c2.574-6.039 5.179-12.06 7.867-18.03 25.72-57.23 56.02-107.7 84.62-149.1 34.91 27.27 65.06 60.07 90.77 94.5-29.27 21.28-57.48 45.72-84.2 72.67h21.26c22.97-22.23 46.94-42.64 71.73-60.62 14.27 20.1 26.98 40.54 38.39 60.62h22.91c-13.06-23.75-27.91-48.16-44.91-72.11 29.82-20.14 60.6-36.85 91.87-49.56 16 36.42 28.44 75.41 36.71 116.5-16.46 0.778-32.7 2.594-48.72 5.18h138.7c-16.52-2.656-33.26-4.492-50.25-5.223 8.05-39.97 20.05-77.93 35.4-113.5 31.07 12.61 61.5 29.04 90.89 48.77-16.4 23.27-30.81 46.91-43.51 69.93h22.93c11.04-19.36 23.28-39.07 36.98-58.48 24.07 17.4 47.31 37.05 69.54 58.48h21.28c-25.99-26.18-53.49-49.88-82.09-70.58 25-33.74 54.21-66.04 87.95-93.17 27.69 40.06 57.12 89.14 82.56 145.7 2.684 5.968 5.297 11.99 7.867 18.03h16.26c-3.395-8.11-6.852-16.19-10.44-24.18-25.98-57.77-56.08-107.9-84.38-148.7 31.97-23.8 67.84-42.8 107.8-54.25 13.4 51.78 26.75 114.1 36.59 184.8 1.958 14.06 3.833 28.22 5.629 42.43h15.11c-1.875-14.9-3.832-29.77-5.887-44.5-9.922-71.2-23.4-134.1-36.94-186.5 22.41-5.25 46.01-8.195 70.93-8.195 0.528 0 1.032 0.039 1.555 0.042v-20c-0.523-3e-3 -1.027-0.042-1.555-0.042-26.78 0-52.09 3.16-76.07 8.8-19.97-73.3-39.11-122.6-46.14-139.7 37.73-12.11 77.33-18.98 118.1-19.85l5.083-0.105 0.562 0.012v-228c-1.656 19.62-3.156 38.48-4.496 56.23-5.551-73.53-13.75-165.5-25.16-256.1h-15.11c12.18 96.3 20.72 194.4 26.29 270.2-16.35-77.23-42.41-176.9-81.48-270.2h-16.26c42.53 99.86 69.77 207.8 86.02 287.6-40.1-108.6-104.5-209.2-182.3-287.6h-21.28c60.34 58.18 113 129.9 153 208.9-65.17-97.63-158.5-167.9-265.6-198.1 1.961-3.562 4.047-7.172 6.094-10.77h-22.93c-1.035 1.875-2.145 3.777-3.156 5.645-9.7-2.246-19.53-4.055-29.42-5.645h-138.6c-10.62 1.711-21.17 3.699-31.57 6.168-1.097-2.039-2.3-4.117-3.429-6.168h-22.91c2.165 3.805 4.36 7.621 6.422 11.39-130.5 37.54-240.3 134.9-303.2 268.4 42-105.5 108.2-203.9 186.7-279.8h-21.26c-79.33 80.05-145.4 182.4-185.8 291.3 16.16-80.09 43.6-189.9 86.77-291.3h-16.26c-39.06 93.33-65.12 193-81.47 270.2 5.57-75.78 14.11-173.9 26.29-270.2h-15.11c-8.656 68.71-15.46 138.2-20.66 199.9v228l5.594 0.14c37.88 0.969 74.7 7.168 110 17.89-6.211 14.96-25.89 64.68-46.56 140.3-21.86-4.703-44.84-7.332-69-7.442v20c22.3 0.11 43.57 2.5 63.84 6.813-13.66 52.57-27.28 116-37.29 187.8"
             fill="#c7a454"
             id="path5" />
          <path
             d="m850.4 349.1c10.87 0 19.68 9.204 19.68 20.56 0 11.36-8.808 20.56-19.68 20.56-10.86 0-19.68-9.203-19.68-20.56 0-11.35 8.813-20.56 19.68-20.56"
             fill="#c7a454"
             id="path7" />
          <path
             d="m752.5 246.8c0-12.11 9.395-21.93 20.99-21.93 11.59 0 20.99 9.816 20.99 21.93 0 12.11-9.395 21.92-20.99 21.92-11.59 0-20.99-9.816-20.99-21.92"
             fill="#c7a454"
             id="path9" />
          <path
             d="m636.9 155.7c-11.59 0-20.99-9.817-20.99-21.93 0-12.11 9.398-21.93 20.99-21.93 11.59 0 20.99 9.816 20.99 21.93 0 12.11-9.395 21.93-20.99 21.93"
             fill="#c7a454"
             id="path11" />
          <path
             d="m456.9 109.1c-11.59 0-20.99-9.817-20.99-21.93s9.394-21.93 20.99-21.93 20.99 9.816 20.99 21.93-9.398 21.93-20.99 21.93"
             fill="#c7a454"
             id="path13" />
          <path
             d="m75.96 388.7c-10.87 0-19.68-9.203-19.68-20.55 0-11.35 8.809-20.56 19.68-20.56 10.87 0 19.68 9.203 19.68 20.56 0 11.35-8.809 20.55-19.68 20.55"
             fill="#c7a454"
             id="path15" />
          <path
             d="m149.2 272c-11.59 0-20.99-9.817-20.99-21.93s9.398-21.93 20.99-21.93c11.59 0 20.99 9.817 20.99 21.93s-9.394 21.93-20.99 21.93"
             fill="#c7a454"
             id="path17" />
          <path
             d="m279.5 155.7c-11.59 0-20.99-9.817-20.99-21.93 0-12.11 9.399-21.93 20.99-21.93 11.59 0 20.99 9.816 20.99 21.93 0 12.11-9.399 21.93-20.99 21.93"
             fill="#c7a454"
             id="path19" />
          <path
             d="m925.8 528.4c-11.59 0-20.99-9.816-20.99-21.93 0-12.11 9.398-21.92 20.99-21.92 11.59 0 20.99 9.816 20.99 21.92 0 12.11-9.398 21.93-20.99 21.93"
             fill="#c7a454"
             id="path21" />
          <path
             d="m389.7 769.8c10.87 0 19.68 9.203 19.68 20.56 0 11.35-8.809 20.55-19.68 20.55s-19.68-9.203-19.68-20.55c0-11.35 8.808-20.56 19.68-20.56"
             fill="#c7a454"
             id="path23" />
          <path
             d="m291.8 667.5c0-12.11 9.398-21.93 20.99-21.93 11.59 0 20.99 9.817 20.99 21.93s-9.398 21.93-20.99 21.93c-11.59 0-20.99-9.817-20.99-21.93"
             fill="#c7a454"
             id="path25" />
          <path
             d="m176.2 576.4c-11.59 0-20.99-9.816-20.99-21.93 0-12.11 9.395-21.93 20.99-21.93 11.59 0 20.99 9.817 20.99 21.93 0 12.11-9.399 21.93-20.99 21.93"
             fill="#c7a454"
             id="path27" />
          <path
             d="m544.9 808c-10.87 0-19.68-9.203-19.68-20.56 0-11.35 8.809-20.55 19.68-20.55s19.68 9.203 19.68 20.55c0 11.35-8.812 20.56-19.68 20.56"
             fill="#c7a454"
             id="path29" />
          <path
             d="m618.2 691.3c-11.59 0-20.99-9.816-20.99-21.92 0-12.11 9.398-21.92 20.99-21.92 11.59 0 20.98 9.812 20.98 21.92 0 12.11-9.394 21.92-20.98 21.92"
             fill="#c7a454"
             id="path31" />
          <path
             d="m748.5 575c-11.59 0-20.99-9.816-20.99-21.92 0-12.11 9.395-21.92 20.99-21.92 11.59 0 20.99 9.816 20.99 21.92 0 12.11-9.399 21.92-20.99 21.92"
             fill="#c7a454"
             id="path33" />
          <path
             d="m-4.16 528.4c-11.59 0-20.99-9.816-20.99-21.93 0-12.11 9.398-21.92 20.99-21.92 11.59 0 20.99 9.816 20.99 21.92 0 12.11-9.398 21.93-20.99 21.93"
             fill="#c7a454"
             id="path35" />
        </g>
      </g>
    </pattern>
    <clipPath
       id="clipPath849">
      <path
         d="M 0,838 H 930 V 0 H 0 Z"
         id="path42" />
    </clipPath>
    <pattern
       inkscape:collect="always"
       xlink:href="#pattern925"
       id="pattern1073"
       patternTransform="matrix(0.4575475,0,0,-0.4575475,-94.79389,166.27285)" />
    <pattern
       patternTransform="matrix(10,0,0,10,0,1366)"
       patternUnits="userSpaceOnUse"
       x="0"
       y="0"
       width="127.2"
       height="181.714"
       id="pattern925">
      <g
         transform="scale(0.1)"
         id="g923">
        <g
           id="g921">
          <g
             clip-path="url(#clipPath899)"
             id="g919">
            <path
               d="m 1187.85,1367.3 -73.67,84.7 -73.66,-84.7 73.66,-84.7 73.67,84.7 z m -73.67,115.16 100.18,-115.16 -100.18,-115.17 -100.17,115.17 100.17,115.16"
               style="fill:#c7a454;fill-opacity:1;fill-rule:nonzero;stroke:none"
               id="path901" />
            <path
               d="m 871.133,454.809 -73.668,84.695 -73.66,-84.695 73.66,-84.7 73.668,84.7 z M 797.465,569.973 897.637,454.809 797.465,339.641 697.301,454.809 797.465,569.973"
               style="fill:#c7a454;fill-opacity:1;fill-rule:nonzero;stroke:none"
               id="path903" />
            <path
               d="m 478.691,1282.6 73.668,84.7 -73.668,84.7 -73.668,-84.7 73.668,-84.7 z M 578.863,1367.3 478.691,1252.13 378.52,1367.3 478.691,1482.46 578.863,1367.3"
               style="fill:#c7a454;fill-opacity:1;fill-rule:nonzero;stroke:none"
               id="path905" />
            <path
               d="m 85.0117,454.809 73.6643,-84.7 73.664,84.7 -73.664,84.695 -73.6643,-84.695 z M 158.676,339.641 58.5078,454.809 158.676,569.973 258.844,454.809 158.676,339.641"
               style="fill:#c7a454;fill-opacity:1;fill-rule:nonzero;stroke:none"
               id="path907" />
            <path
               d="M 0,1430.95 0,1400.48 28.8633,1367.3 0,1334.11 0,1303.64 55.3672,1367.3 0,1430.95"
               style="fill:#c7a454;fill-opacity:1;fill-rule:nonzero;stroke:none"
               id="path909" />
            <path
               d="M 1106.12,432.457 964.711,268.781 c 0.012,-16.73 0.07,-87.125 0.078,-157.16 l 141.331,162.484 0,158.352 z m -1.94,47.188 0,161.128 -136.688,154.188 c 0.063,-84.25 0.113,-150.625 0.121,-158.301 L 1104.18,479.645 Z m -136.707,345.492 136.707,-154.211 0,142.863 c -19.01,21.836 -76.51,87.813 -136.813,157.008 0.031,-48.117 0.071,-98.731 0.106,-145.66 z m 156.707,-343.992 138.01,156.425 0.21,156.715 C 1195.18,718.023 1132.91,647.402 1124.18,637.512 l 0,-156.367 z m 0,186.605 c 26.42,29.957 81.83,92.805 138.26,156.832 l 0.2,145.227 -138.46,-157.075 0,-144.984 z m 1.94,-241.785 0,-157.047 c 25.17,-28.898 80.46,-92.355 137.7,-158.027 -0.06,75.031 -0.1,136.765 -0.1,156.886 l -0.06,0.067 -137.54,158.121 z M 947.328,1024.23 c -0.055,74.64 -0.094,135.98 -0.098,156.04 l -0.046,0.06 -139.719,160.62 0,-156.27 4.539,-5.19 c -0.008,0 64.68,-74.21 135.324,-155.26 z m -0.359,-30.027 C 887.98,1061.88 830.438,1127.9 807.465,1154.25 l 0,-148.63 139.504,-157.354 0,145.937 z m -139.504,399.447 135.656,155.96 0.192,144.54 C 874.246,1614.91 811.988,1543.48 811.988,1543.48 l -4.523,-5.18 0,-144.65 z m -10,-724.224 L 610.797,454.809 797.465,240.188 984.141,454.809 797.465,669.426 Z m -10,335.944 0,140.74 C 759.758,1114.27 703.25,1049.35 646.512,984.172 l -0.043,-140.125 140.996,161.323 z m -140.942,9.28 c 65.856,75.66 127.997,147.04 140.942,161.92 l 0,168.54 -140.887,-161.97 -0.055,-168.49 z m 140.942,375.12 0,156.56 -139.274,155.48 0,-151.92 139.274,-160.12 z M 626.5,961.184 C 561.352,886.332 500.641,816.586 488.691,802.855 l 0,-139.324 137.766,157.621 0.043,140.032 z m -0.055,-170.43 -137.754,-157.606 0,-150.23 137.704,154.273 0.05,153.563 z m -137.754,-364.063 0,-154.285 141.922,-162.238 c -0.054,75.363 -0.093,137.426 -0.101,157.609 l -0.059,0.067 -141.762,158.847 z m -10,725.989 L 665.367,1367.3 478.691,1581.91 292.02,1367.3 478.691,1152.68 Z m -10,-344.969 -136.816,158.078 c 0.035,-49.144 0.074,-100.769 0.105,-148.434 l 136.711,-157.554 0,147.91 z m 0,-178.43 -136.683,157.532 c 0.055,-76.711 0.097,-138.223 0.109,-153.762 25.125,-28.305 102.934,-115.828 136.574,-153.668 l 0,149.898 z m 0,-198.859 -140.421,-157.902 -0.016,-157.641 140.437,161.98 0,153.563 z M 311.965,840.426 c -0.035,48.715 -0.074,100.347 -0.106,148.492 l -140.566,162.412 0,-148.78 140.672,-162.124 z m -3.75,709.854 0.015,148.68 C 237.762,1617.83 173.203,1543.5 173.203,1543.5 l -4.527,-5.18 0,-148.46 139.539,160.42 z m -136.922,-208.55 0,-159.84 140.543,-162.39 c -0.051,76.91 -0.094,140.34 -0.098,160.77 l -0.05,0.06 -140.395,161.4 z m -20,3.77 -139.5117,-160.39 -0.0508,-161.13 139.5625,158.34 0,163.18 z m 0,-193.43 L 7.11719,988.504 10.6641,988.5 10.4766,847.313 C 74.3984,919.852 135.105,988.781 151.293,1007.3 l 0,144.77 z m -2.617,240.33 0,154.01 c -12.571,14.42 -72.5627,83.25 -136.6955,156.83 0.0508,-72.24 0.0976,-131.96 0.1133,-153.82 L 148.676,1392.4 Z m 977.444,206.25 145.88,-167.7 0,-30.47 -157.82,181.43 -186.664,-214.61 186.664,-214.62 157.82,181.44 0,-30.47 -147.82,-169.94 0,-290.737 139.55,158.307 0.05,191.38 8.22,9.45 0,-583.661 L 1127.58,454.758 1272,288.738 1272,0 l -8.31,0 0,80.5977 C 1211.01,141.035 1157.85,202.043 1126.12,238.469 l 0,-140.9026 0.07,0.0547 c 8.15,-9.375 42.25,-48.5078 85.05,-97.6211 l -26.53,0 c -24.34,27.9336 -45.06,51.7148 -58.59,67.2422 l 0,-67.2422 -20,0 0,63.832 C 1092.63,48.3477 1073.12,25.9492 1050.5,0 l -26.53,0 c 38.86,44.5898 70.55,80.9492 82.15,94.2813 l 0,149.3517 L 963.586,79.7617 963.477,0 l -20,0 0.078,56.7305 L 894.207,0 l -26.508,0 77.09,88.6289 c 0.008,86.9881 -0.082,183.8631 -0.082,183.8631 l -0.004,3.731 154.317,178.601 -152.051,174.809 0,188.48 -139.504,157.36 0,-287.075 203.175,-233.589 -202.843,-233.211 0,-221.598 -20.332,0 0,221.219 -203.172,233.59 203.172,233.589 0,286.579 L 646.457,813.648 646.395,629.555 490.406,454.809 650.512,275.266 l 0,-3.75 c 0,-16.332 0.051,-93.114 0.117,-184.2308 L 726.98,0 700.406,0 648.191,59.6914 648.191,0 l -20,0 0,82.5547 -139.5,159.4803 0,-29.492 0,-119.8399 L 571.73,0 544.883,0 488.691,62.7266 488.691,0 l -20,0 0,66.543 C 455.199,51.0156 434.785,27.5156 410.883,0 l -26.492,0 c 41.941,48.2813 75.464,86.875 84.3,97.0352 l 0,115.5078 0,33.789 L 328.254,84.3438 328.242,0 l -20,0 0.004,61.2695 L 255.129,0 228.656,0 308.254,91.8047 308.27,280.227 463.621,454.992 C 438.293,483.48 339.066,595.082 314.645,622.609 l -2.516,2.844 -0.004,3.789 c -0.004,1.481 -0.062,81.582 -0.137,180.641 l -140.695,162.144 0,-285.48 -1.004,0 201.563,-231.738 -203.176,-233.59 0,-221.219 -20,0 0,221.215 L 0,392.148 0,422.617 158.676,240.188 345.348,454.809 158.676,669.426 0,486.996 l 0,30.473 151.293,173.937 0,285.567 C 122.766,944.504 66.6406,880.789 10.4336,817.016 L 10.1836,629.992 0,618.445 0,1202.11 143.723,1367.34 0,1532.57 l 0,284.57 11.8945,0 c 0.0235,-28.19 0.043,-56.38 0.0625,-83.43 55.086,-63.21 109.641,-125.79 136.719,-156.86 l 0,140.77 c -9.168,10.52 -43.571,49.99 -86.7463,99.52 l 26.5351,0 c 24.9762,-28.65 46.2622,-53.07 60.2112,-69.08 l 0,69.08 20,0 0,-69.18 59.98,69.18 26.473,0 -86.453,-99.72 0,-148.63 c 23,26.47 80.605,92.8 139.554,160.68 l 0.012,87.67 20,0 -0.008,-64.64 c 19.422,22.36 38.516,44.34 56.153,64.64 l 26.492,0 c -25.004,-28.78 -53.828,-61.97 -82.649,-95.15 l -0.015,-181.52 -4.399,0 1.352,-1.17 -149.609,-172 156.179,-179.54 0,-3.75 c 0,-16.48 0.051,-94.81 0.117,-187.639 l 136.836,-158.105 0,294.574 0.758,0 -203.929,234.46 203.171,233.58 0,216.26 20,0 0,-216.26 203.18,-233.58 -203.937,-234.46 0.757,0 0,-299.524 c 27,31.028 82.008,94.219 137.821,158.34 l 0.066,198.964 4.199,4.83 -0.035,0.03 149.485,171.86 -152.036,174.78 0,182.02 -83.304,93 26.847,0 56.457,-63.03 0,63.03 20,0 0,-85.36 139.274,-155.48 0,141.31 -87.063,99.53 26.578,0 60.485,-69.15 0,69.15 20.332,0 0,-68.87 59.902,68.87 26.512,0 -86.414,-99.34 0,-148.69 c 22.723,26.07 78.129,89.64 135.558,155.53 l 0.122,92.5 20,0 -0.094,-69.52 c 20.933,24.02 41.607,47.74 60.587,69.52 l 26.53,0 c -26.31,-30.19 -56.832,-65.21 -87.156,-100.01 l -0.235,-175.02 -152.058,-174.81 156.179,-179.54 0,-3.75 c 0,-16.25 0.051,-92.26 0.114,-182.75 53.806,-61.733 107.806,-123.694 136.836,-157.022 l 0,289.472 -203.168,233.59 205.108,235.81 0,214.03 20,0 0,-218.49"
               style="fill:#c7a454;fill-opacity:1;fill-rule:nonzero;stroke:none"
               id="path911" />
            <path
               d="m 1263.69,1817.14 0,-60.17 c -18.15,20.82 -35.93,41.21 -52.45,60.17 l -26.53,0 c 23.95,-27.47 51.39,-58.97 78.98,-90.62 l 0,-184.4 0.41,-0.47 c 0,-0.75 0,-1.19 0,-1.19 l 1.03,0 6.87,-7.89 0,284.57 -8.31,0"
               style="fill:#c7a454;fill-opacity:1;fill-rule:nonzero;stroke:none"
               id="path913" />
            <path
               d="m 1272,392.148 0,30.469 -28,32.192 28,32.187 0,30.473 -54.5,-62.66 54.5,-62.661"
               style="fill:#c7a454;fill-opacity:1;fill-rule:nonzero;stroke:none"
               id="path915" />
            <path
               d="m 11.7188,271.516 0,3.75 L 0,288.738 0,0 11.8945,0 C 11.8828,19.2813 11.8672,38.5625 11.8516,57.4609 29.2031,37.5508 46.1367,18.1211 61.9336,0 L 88.4688,0 C 65.1758,26.7227 38.6836,57.1172 11.832,87.9258 11.7695,178.781 11.7188,255.223 11.7188,271.516"
               style="fill:#c7a454;fill-opacity:1;fill-rule:nonzero;stroke:none"
               id="path917" />
          </g>
        </g>
      </g>
    </pattern>
    <clipPath
       clipPathUnits="userSpaceOnUse"
       id="clipPath899">
      <path
         d="M 0,1818 H 1272 V 0 H 0 Z"
         id="path897" />
    </clipPath>
  </defs>
  <metadata
     id="metadata47">
    <rdf:RDF>
      <cc:Work
         rdf:about="">
        <dc:format>image/svg+xml</dc:format>
        <dc:type
           rdf:resource="http://purl.org/dc/dcmitype/StillImage" />
        <dc:title></dc:title>
      </cc:Work>
    </rdf:RDF>
  </metadata>
  <path
     id="path927"
     style="fill:url(#pattern1073);fill-opacity:1;fill-rule:nonzero;stroke:none;stroke-width:0.0457547"
     d="M 0,0 V 228.77363 H 28.950169 V 0 Z" />
</svg>
