<?xml version="1.0" encoding="UTF-8" standalone="no"?>
<svg
   xmlns:dc="http://purl.org/dc/elements/1.1/"
   xmlns:cc="http://creativecommons.org/ns#"
   xmlns:rdf="http://www.w3.org/1999/02/22-rdf-syntax-ns#"
   xmlns:svg="http://www.w3.org/2000/svg"
   xmlns="http://www.w3.org/2000/svg"
   xmlns:sodipodi="http://sodipodi.sourceforge.net/DTD/sodipodi-0.dtd"
   xmlns:inkscape="http://www.inkscape.org/namespaces/inkscape"
   width="126.3mm"
   height="126.5mm"
   version="1.1"
   viewBox="0 0 126.3 126.5"
   id="svg15"
   sodipodi:docname="star_deco.svg"
   inkscape:version="1.0.2 (e86c870879, 2021-01-15, custom)">
  <sodipodi:namedview
     pagecolor="#ffffff"
     bordercolor="#666666"
     borderopacity="1"
     objecttolerance="10"
     gridtolerance="10"
     guidetolerance="10"
     inkscape:pageopacity="0"
     inkscape:pageshadow="2"
     inkscape:window-width="1620"
     inkscape:window-height="1018"
     id="namedview17"
     showgrid="false"
     inkscape:zoom="1.5373024"
     inkscape:cx="238.67717"
     inkscape:cy="239.05512"
     inkscape:window-x="-6"
     inkscape:window-y="-6"
     inkscape:window-maximized="1"
     inkscape:current-layer="svg15" />
  <defs
     id="defs7">
    <linearGradient
       id="linearGradient9329"
       x1="55.191154"
       x2="154.64218"
       y1="153.76462"
       y2="219.33809"
       gradientTransform="translate(-50.2,-146.41)"
       gradientUnits="userSpaceOnUse">
      <stop
         stop-color="#d7be68"
         offset="0"
         id="stop2"
         style="stop-color:#fae7a7;stop-opacity:1" />
      <stop
         stop-color="#ad893a"
         offset="1"
         id="stop4"
         style="stop-color:#d59857;stop-opacity:1" />
    </linearGradient>
  </defs>
  <metadata
     id="metadata9">
    <rdf:RDF>
      <cc:Work
         rdf:about="">
        <dc:format>image/svg+xml</dc:format>
        <dc:type
           rdf:resource="http://purl.org/dc/dcmitype/StillImage" />
        <dc:title />
      </cc:Work>
    </rdf:RDF>
  </metadata>
  <path
     d="m 62.95,41.95 c -11.88,0 -21.54,9.666 -21.54,21.55 0,11.88 9.664,21.54 21.54,21.54 11.88,0 21.54,-9.664 21.54,-21.54 0,-11.88 -9.664,-21.55 -21.54,-21.55 z m 0,3 c 10.26,0 18.54,8.287 18.54,18.55 0,10.26 -8.285,18.54 -18.54,18.54 -10.26,0 -18.54,-8.285 -18.54,-18.54 0,-10.26 8.285,-18.55 18.54,-18.55 z m 50.27,-2.48 -13.13,-0.378 -10.49,10.21 15.12,-0.189 z m 0.356,41.95 -13.13,0.378 -10.49,-10.21 15.12,0.189 z m -101.3,-42.52 13.13,-0.378 10.49,10.21 -15.12,-0.189 z m -0.356,41.95 13.13,0.378 10.49,-10.21 -15.12,0.189 z m 71.71,29.59 0.378,-13.13 -10.21,-10.49 0.189,15.12 z m -41.95,0.356 -0.378,-13.13 10.21,-10.49 -0.189,15.12 z m 42.14,-101.1 0.378,13.13 -10.21,10.49 0.189,-15.12 z M 41.87,12.34 41.492,25.47 51.702,35.96 51.513,20.84 Z M 62.92,0.01 c -1.158,0 -2.09,1.004 -2.09,2.251 v 36.99 a 24.1,24.1 0 0 0 -0.4775,0.047 V 5.588 h -0.5126 c -1.608,0 -2.902,1.446 -2.902,3.243 v 31.08 a 24.1,24.1 0 0 0 -0.4516,0.1214 v -28.33 h -0.9286 c -1.172,0 -2.116,1.019 -2.116,2.286 v 26.4 l -18.29,-18.29 c -0.8954,-0.8954 -2.284,-0.9487 -3.112,-0.1199 l -0.6563,0.6563 19.66,19.66 a 24.1,24.1 0 0 0 -0.4041,0.2351 l -21.81,-21.81 c -1.27,-1.27 -3.208,-1.378 -4.345,-0.2413 l -0.3623,0.3622 23.67,23.67 a 24.1,24.1 0 0 0 -0.37,0.3059 l -25.92,-25.92 c -0.8815,-0.8815 -2.25,-0.932 -3.069,-0.1132 -0.8189,0.8189 -0.7689,2.188 0.1127,3.069 l 25.93,25.93 a 24.1,24.1 0 0 0 -0.3049,0.371 l -23.6,-23.6 -0.3623,0.3622 c -1.137,1.137 -1.029,3.075 0.2413,4.345 l 21.75,21.75 a 24.1,24.1 0 0 0 -0.2336,0.4051 l -19.8,-19.8 -0.6563,0.6568 c -0.8288,0.8288 -0.775,2.217 0.1204,3.112 l 18.64,18.64 h -26.08 c -1.266,0 -2.286,0.9435 -2.286,2.116 v 0.9286 h 27.76 a 24.1,24.1 0 0 0 -0.1152,0.4516 h -30.81 c -1.797,0 -3.243,1.295 -3.243,2.902 v 0.5121 h 33.47 a 24.1,24.1 0 0 0 -0.04134,0.478 h -36.67 c -1.247,0 -2.251,0.9323 -2.251,2.09 0,1.1577 1.004,2.09 2.251,2.09 h 36.71 a 24.1,24.1 0 0 0 0.05116,0.4775 h -33.43 v 0.5121 c 0,1.608 1.446,2.902 3.243,2.902 h 30.84 a 24.1,24.1 0 0 0 0.1251,0.4517 h -28.09 v 0.9286 c 0,1.172 1.019,2.116 2.286,2.116 h 26.09 l -18.5,18.5 c -0.8954,0.8954 -0.9492,2.283 -0.1204,3.112 l 0.6568,0.6563 19.96,-19.96 a 24.1,24.1 0 0 0 0.2367,0.4015 l -21.91,21.91 c -1.27,1.27 -1.377,3.208 -0.2408,4.345 l 0.3623,0.3622 23.78,-23.78 a 24.1,24.1 0 0 0 0.3075,0.3685 l -26.11,26.11 c -0.8815,0.8815 -0.932,2.251 -0.1132,3.07 0.8189,0.8189 2.188,0.7684 3.069,-0.1132 l 26.13,-26.13 a 24.1,24.1 0 0 0 0.3736,0.3023 l -23.88,23.88 0.3623,0.3622 c 1.137,1.137 3.075,1.03 4.345,-0.2408 l 22.04,-22.04 a 24.1,24.1 0 0 0 0.4077,0.2315 l -19.89,19.89 0.6563,0.6563 c 0.8288,0.8288 2.217,0.7756 3.112,-0.1199 l 18.19,-18.19 v 26 c 0,1.266 0.9435,2.286 2.116,2.286 h 0.9281 v -28.41 a 24.1,24.1 0 0 0 0.4516,0.1235 v 31.16 c 0,1.797 1.295,3.243 2.902,3.243 h 0.5121 v -33.76 a 24.1,24.1 0 0 0 0.478,0.0491 v 37.05 c 0,1.247 0.9323,2.25 2.09,2.25 1.1577,0 2.09,-1.003 2.09,-2.25 v -36.98 a 24.1,24.1 0 0 1 -0.1674,0.0114 24.1,24.1 0 0 1 -0.2119,0.0124 24.1,24.1 0 0 1 -0.2119,0.0108 24.1,24.1 0 0 1 -0.2124,0.009 24.1,24.1 0 0 1 -0.2124,0.007 24.1,24.1 0 0 1 -0.2119,0.005 24.1,24.1 0 0 1 -0.2124,0.003 24.1,24.1 0 0 1 -0.2124,0.002 24.1,24.1 0 0 1 -0.0563,0 24.1,24.1 0 0 1 -0.2124,-5.2e-4 24.1,24.1 0 0 1 -0.2124,-0.003 24.1,24.1 0 0 1 -0.2124,-0.005 24.1,24.1 0 0 1 -0.2124,-0.007 24.1,24.1 0 0 1 -0.2119,-0.008 24.1,24.1 0 0 1 -0.2124,-0.0103 24.1,24.1 0 0 1 -0.2119,-0.0119 24.1,24.1 0 0 1 -0.2119,-0.014 24.1,24.1 0 0 1 -0.2114,-0.016 24.1,24.1 0 0 1 -0.2119,-0.0181 24.1,24.1 0 0 1 -0.2114,-0.0191 24.1,24.1 0 0 1 -0.2114,-0.0217 24.1,24.1 0 0 1 -0.2108,-0.0233 24.1,24.1 0 0 1 -0.2108,-0.0253 24.1,24.1 0 0 1 -0.2108,-0.0269 24.1,24.1 0 0 1 -0.2103,-0.0289 24.1,24.1 0 0 1 -0.2098,-0.031 24.1,24.1 0 0 1 -0.2098,-0.0326 24.1,24.1 0 0 1 -0.2098,-0.0346 24.1,24.1 0 0 1 -0.2088,-0.0362 24.1,24.1 0 0 1 -0.2093,-0.0382 24.1,24.1 0 0 1 -0.2083,-0.0398 24.1,24.1 0 0 1 -0.2083,-0.0419 24.1,24.1 0 0 1 -0.2077,-0.0434 24.1,24.1 0 0 1 -0.2072,-0.0455 24.1,24.1 0 0 1 -0.2072,-0.0476 24.1,24.1 0 0 1 -0.2067,-0.0491 24.1,24.1 0 0 1 -0.2057,-0.0512 24.1,24.1 0 0 1 -0.2057,-0.0527 24.1,24.1 0 0 1 -0.2057,-0.0543 24.1,24.1 0 0 1 -0.2046,-0.0563 24.1,24.1 0 0 1 -0.2041,-0.0584 24.1,24.1 0 0 1 -0.2036,-0.06 24.1,24.1 0 0 1 -0.2031,-0.062 24.1,24.1 0 0 1 -0.2026,-0.0636 24.1,24.1 0 0 1 -0.202,-0.0651 24.1,24.1 0 0 1 -0.2015,-0.0672 24.1,24.1 0 0 1 -0.2005,-0.0687 24.1,24.1 0 0 1 -0.2005,-0.0708 24.1,24.1 0 0 1 -0.1995,-0.0723 24.1,24.1 0 0 1 -0.199,-0.0744 24.1,24.1 0 0 1 -0.1984,-0.076 24.1,24.1 0 0 1 -0.1974,-0.0775 24.1,24.1 0 0 1 -0.1969,-0.0791 24.1,24.1 0 0 1 -0.1964,-0.0811 24.1,24.1 0 0 1 -0.1953,-0.0832 24.1,24.1 0 0 1 -0.1948,-0.0847 24.1,24.1 0 0 1 -0.1943,-0.0863 24.1,24.1 0 0 1 -0.1928,-0.0879 24.1,24.1 0 0 1 -0.1928,-0.0894 24.1,24.1 0 0 1 -0.1917,-0.0915 24.1,24.1 0 0 1 -0.1907,-0.093 24.1,24.1 0 0 1 -0.1902,-0.0951 24.1,24.1 0 0 1 -0.1891,-0.0961 24.1,24.1 0 0 1 -0.1881,-0.0982 24.1,24.1 0 0 1 -0.1876,-0.0997 24.1,24.1 0 0 1 -0.1866,-0.1013 24.1,24.1 0 0 1 -0.1855,-0.1034 24.1,24.1 0 0 1 -0.185,-0.1044 24.1,24.1 0 0 1 -0.1834,-0.1064 24.1,24.1 0 0 1 -0.1829,-0.108 24.1,24.1 0 0 1 -0.1819,-0.1096 24.1,24.1 0 0 1 -0.1809,-0.1111 24.1,24.1 0 0 1 -0.1798,-0.1127 24.1,24.1 0 0 1 -0.1793,-0.1142 24.1,24.1 0 0 1 -0.1778,-0.1158 24.1,24.1 0 0 1 -0.1767,-0.1173 24.1,24.1 0 0 1 -0.1762,-0.1194 24.1,24.1 0 0 1 -0.1747,-0.1204 24.1,24.1 0 0 1 -0.1736,-0.122 24.1,24.1 0 0 1 -0.1726,-0.1235 24.1,24.1 0 0 1 -0.1716,-0.1251 24.1,24.1 0 0 1 -0.1705,-0.1266 24.1,24.1 0 0 1 -0.1695,-0.1282 24.1,24.1 0 0 1 -0.168,-0.1297 24.1,24.1 0 0 1 -0.1669,-0.1307 24.1,24.1 0 0 1 -0.1659,-0.1328 24.1,24.1 0 0 1 -0.1648,-0.1338 24.1,24.1 0 0 1 -0.1638,-0.1354 24.1,24.1 0 0 1 -0.1623,-0.1369 24.1,24.1 0 0 1 -0.1612,-0.1385 24.1,24.1 0 0 1 -0.1597,-0.1395 24.1,24.1 0 0 1 -0.1586,-0.1411 24.1,24.1 0 0 1 -0.1571,-0.1426 24.1,24.1 0 0 1 -0.1566,-0.1437 24.1,24.1 0 0 1 -0.1545,-0.1452 24.1,24.1 0 0 1 -0.154,-0.1468 24.1,24.1 0 0 1 -0.1519,-0.1478 24.1,24.1 0 0 1 -0.1509,-0.1493 24.1,24.1 0 0 1 -0.1499,-0.1509 24.1,24.1 0 0 1 -0.1483,-0.1519 24.1,24.1 0 0 1 -0.1468,-0.153 24.1,24.1 0 0 1 -0.1457,-0.1545 24.1,24.1 0 0 1 -0.1442,-0.1561 24.1,24.1 0 0 1 -0.1431,-0.1571 24.1,24.1 0 0 1 -0.1416,-0.1581 24.1,24.1 0 0 1 -0.14,-0.1597 24.1,24.1 0 0 1 -0.1385,-0.1607 24.1,24.1 0 0 1 -0.1375,-0.1617 24.1,24.1 0 0 1 -0.1354,-0.1633 24.1,24.1 0 0 1 -0.1344,-0.1643 24.1,24.1 0 0 1 -0.1333,-0.1659 24.1,24.1 0 0 1 -0.1313,-0.1664 24.1,24.1 0 0 1 -0.1297,-0.168 24.1,24.1 0 0 1 -0.1287,-0.169 24.1,24.1 0 0 1 -0.1271,-0.1705 24.1,24.1 0 0 1 -0.1256,-0.171 24.1,24.1 0 0 1 -0.124,-0.1726 24.1,24.1 0 0 1 -0.1225,-0.1731 24.1,24.1 0 0 1 -0.1209,-0.1747 24.1,24.1 0 0 1 -0.1194,-0.1757 24.1,24.1 0 0 1 -0.1178,-0.1767 24.1,24.1 0 0 1 -0.1163,-0.1772 24.1,24.1 0 0 1 -0.1147,-0.1788 24.1,24.1 0 0 1 -0.1127,-0.1798 24.1,24.1 0 0 1 -0.1116,-0.1804 24.1,24.1 0 0 1 -0.1101,-0.1819 24.1,24.1 0 0 1 -0.1085,-0.1824 24.1,24.1 0 0 1 -0.1065,-0.1834 24.1,24.1 0 0 1 -0.1054,-0.1845 24.1,24.1 0 0 1 -0.1034,-0.1855 24.1,24.1 0 0 1 -0.1018,-0.1866 24.1,24.1 0 0 1 -0.1003,-0.1871 24.1,24.1 0 0 1 -0.09818,-0.1881 24.1,24.1 0 0 1 -0.09715,-0.1891 24.1,24.1 0 0 1 -0.09508,-0.1896 24.1,24.1 0 0 1 -0.09354,-0.1907 24.1,24.1 0 0 1 -0.09198,-0.1912 24.1,24.1 0 0 1 -0.08992,-0.1922 24.1,24.1 0 0 1 -0.08837,-0.1933 24.1,24.1 0 0 1 -0.08682,-0.1938 24.1,24.1 0 0 1 -0.08526,-0.1943 24.1,24.1 0 0 1 -0.0832,-0.1953 24.1,24.1 0 0 1 -0.08165,-0.1959 24.1,24.1 0 0 1 -0.0801,-0.1969 24.1,24.1 0 0 1 -0.07803,-0.1974 24.1,24.1 0 0 1 -0.07648,-0.1979 24.1,24.1 0 0 1 -0.07441,-0.199 24.1,24.1 0 0 1 -0.07286,-0.1995 24.1,24.1 0 0 1 -0.07131,-0.2 24.1,24.1 0 0 1 -0.06925,-0.2005 24.1,24.1 0 0 1 -0.0677,-0.2015 24.1,24.1 0 0 1 -0.06563,-0.2021 24.1,24.1 0 0 1 -0.06408,-0.202 24.1,24.1 0 0 1 -0.06201,-0.2031 24.1,24.1 0 0 1 -0.06046,-0.2036 24.1,24.1 0 0 1 -0.05891,-0.2041 24.1,24.1 0 0 1 -0.05684,-0.2046 24.1,24.1 0 0 1 -0.05478,-0.2052 24.1,24.1 0 0 1 -0.05323,-0.2052 24.1,24.1 0 0 1 -0.05168,-0.2062 24.1,24.1 0 0 1 -0.04961,-0.2062 24.1,24.1 0 0 1 -0.04754,-0.2072 24.1,24.1 0 0 1 -0.04599,-0.2072 24.1,24.1 0 0 1 -0.04444,-0.2077 24.1,24.1 0 0 1 -0.04238,-0.2077 24.1,24.1 0 0 1 -0.04031,-0.2088 24.1,24.1 0 0 1 -0.03876,-0.2088 24.1,24.1 0 0 1 -0.03669,-0.2088 24.1,24.1 0 0 1 -0.03514,-0.2098 24.1,24.1 0 0 1 -0.03307,-0.2098 24.1,24.1 0 0 1 -0.03101,-0.2098 24.1,24.1 0 0 1 -0.02946,-0.2103 24.1,24.1 0 0 1 -0.02739,-0.2103 24.1,24.1 0 0 1 -0.02584,-0.2108 24.1,24.1 0 0 1 -0.02377,-0.2108 24.1,24.1 0 0 1 -0.02222,-0.2114 24.1,24.1 0 0 1 -0.02015,-0.2114 24.1,24.1 0 0 1 -0.01809,-0.2114 24.1,24.1 0 0 1 -0.01654,-0.2119 24.1,24.1 0 0 1 -0.01447,-0.2119 24.1,24.1 0 0 1 -0.0124,-0.2119 24.1,24.1 0 0 1 -0.01085,-0.2119 24.1,24.1 0 0 1 -0.0088,-0.2124 24.1,24.1 0 0 1 -0.0072,-0.2124 24.1,24.1 0 0 1 -0.0052,-0.2119 24.1,24.1 0 0 1 -0.0031,-0.2124 24.1,24.1 0 0 1 -0.0015,-0.2124 24.1,24.1 0 0 1 0,-0.0563 24.1,24.1 0 0 1 5.16e-4,-0.2124 24.1,24.1 0 0 1 0.0031,-0.2124 24.1,24.1 0 0 1 0.0047,-0.2124 24.1,24.1 0 0 1 0.0067,-0.2124 24.1,24.1 0 0 1 0.0083,-0.2119 24.1,24.1 0 0 1 0.01034,-0.2124 24.1,24.1 0 0 1 0.01188,-0.2119 24.1,24.1 0 0 1 0.01395,-0.2119 24.1,24.1 0 0 1 0.01602,-0.2114 24.1,24.1 0 0 1 0.01809,-0.2119 24.1,24.1 0 0 1 0.01964,-0.2114 24.1,24.1 0 0 1 0.02119,-0.2114 24.1,24.1 0 0 1 0.02325,-0.2108 24.1,24.1 0 0 1 0.02532,-0.2108 24.1,24.1 0 0 1 0.02687,-0.2108 24.1,24.1 0 0 1 0.02894,-0.2103 24.1,24.1 0 0 1 0.03101,-0.2098 24.1,24.1 0 0 1 0.03256,-0.2098 24.1,24.1 0 0 1 0.03462,-0.2098 24.1,24.1 0 0 1 0.03617,-0.2088 24.1,24.1 0 0 1 0.03824,-0.2093 24.1,24.1 0 0 1 0.03979,-0.2083 24.1,24.1 0 0 1 0.04186,-0.2082 24.1,24.1 0 0 1 0.04341,-0.2077 24.1,24.1 0 0 1 0.04547,-0.2072 24.1,24.1 0 0 1 0.04754,-0.2072 24.1,24.1 0 0 1 0.04909,-0.2067 24.1,24.1 0 0 1 0.05116,-0.2062 24.1,24.1 0 0 1 0.05271,-0.2052 24.1,24.1 0 0 1 0.05426,-0.2057 24.1,24.1 0 0 1 0.05633,-0.2046 24.1,24.1 0 0 1 0.05839,-0.2041 24.1,24.1 0 0 1 0.05994,-0.2036 24.1,24.1 0 0 1 0.06201,-0.2031 24.1,24.1 0 0 1 0.06356,-0.2026 24.1,24.1 0 0 1 0.06511,-0.2021 24.1,24.1 0 0 1 0.06718,-0.2015 24.1,24.1 0 0 1 0.06873,-0.2005 24.1,24.1 0 0 1 0.0708,-0.2005 24.1,24.1 0 0 1 0.07235,-0.1995 24.1,24.1 0 0 1 0.07441,-0.199 24.1,24.1 0 0 1 0.07596,-0.1984 24.1,24.1 0 0 1 0.07752,-0.1974 24.1,24.1 0 0 1 0.07958,-0.1969 24.1,24.1 0 0 1 0.08113,-0.1964 24.1,24.1 0 0 1 0.08268,-0.1953 24.1,24.1 0 0 1 0.08475,-0.1948 24.1,24.1 0 0 1 0.0863,-0.1943 24.1,24.1 0 0 1 0.08785,-0.1928 24.1,24.1 0 0 1 0.0894,-0.1928 24.1,24.1 0 0 1 0.09147,-0.1917 24.1,24.1 0 0 1 0.09302,-0.1907 24.1,24.1 0 0 1 0.09509,-0.1902 24.1,24.1 0 0 1 0.09612,-0.1891 24.1,24.1 0 0 1 0.09818,-0.1881 24.1,24.1 0 0 1 0.09974,-0.1876 24.1,24.1 0 0 1 0.1013,-0.1866 24.1,24.1 0 0 1 0.1034,-0.1855 24.1,24.1 0 0 1 0.1044,-0.185 24.1,24.1 0 0 1 0.1065,-0.1834 24.1,24.1 0 0 1 0.108,-0.1829 24.1,24.1 0 0 1 0.1096,-0.1819 24.1,24.1 0 0 1 0.1111,-0.1809 24.1,24.1 0 0 1 0.1127,-0.1798 24.1,24.1 0 0 1 0.1142,-0.1793 24.1,24.1 0 0 1 0.1158,-0.1778 24.1,24.1 0 0 1 0.1173,-0.1767 24.1,24.1 0 0 1 0.1194,-0.1762 24.1,24.1 0 0 1 0.1204,-0.1747 24.1,24.1 0 0 1 0.122,-0.1736 24.1,24.1 0 0 1 0.1235,-0.1726 24.1,24.1 0 0 1 0.1251,-0.1716 24.1,24.1 0 0 1 0.1266,-0.1705 24.1,24.1 0 0 1 0.1282,-0.1695 24.1,24.1 0 0 1 0.1297,-0.168 24.1,24.1 0 0 1 0.1307,-0.1669 24.1,24.1 0 0 1 0.1328,-0.1659 24.1,24.1 0 0 1 0.1338,-0.1648 24.1,24.1 0 0 1 0.1354,-0.1638 24.1,24.1 0 0 1 0.1369,-0.1623 24.1,24.1 0 0 1 0.1385,-0.1612 24.1,24.1 0 0 1 0.1395,-0.1597 24.1,24.1 0 0 1 0.1411,-0.1586 24.1,24.1 0 0 1 0.1426,-0.1576 24.1,24.1 0 0 1 0.1437,-0.1561 24.1,24.1 0 0 1 0.1452,-0.1545 24.1,24.1 0 0 1 0.1468,-0.154 24.1,24.1 0 0 1 0.1478,-0.1519 24.1,24.1 0 0 1 0.1493,-0.1509 24.1,24.1 0 0 1 0.1509,-0.1499 24.1,24.1 0 0 1 0.1519,-0.1483 24.1,24.1 0 0 1 0.153,-0.1468 24.1,24.1 0 0 1 0.1545,-0.1457 24.1,24.1 0 0 1 0.1561,-0.1442 24.1,24.1 0 0 1 0.1571,-0.1431 24.1,24.1 0 0 1 0.1581,-0.1416 24.1,24.1 0 0 1 0.1597,-0.14 24.1,24.1 0 0 1 0.1607,-0.1385 24.1,24.1 0 0 1 0.1617,-0.1375 24.1,24.1 0 0 1 0.1633,-0.1354 24.1,24.1 0 0 1 0.1643,-0.1344 24.1,24.1 0 0 1 0.1659,-0.1333 24.1,24.1 0 0 1 0.1664,-0.1312 24.1,24.1 0 0 1 0.1679,-0.1297 24.1,24.1 0 0 1 0.169,-0.1287 24.1,24.1 0 0 1 0.1705,-0.1271 24.1,24.1 0 0 1 0.1711,-0.1256 24.1,24.1 0 0 1 0.1726,-0.124 24.1,24.1 0 0 1 0.1731,-0.1225 24.1,24.1 0 0 1 0.1747,-0.1209 24.1,24.1 0 0 1 0.1757,-0.1194 24.1,24.1 0 0 1 0.1767,-0.1178 24.1,24.1 0 0 1 0.1772,-0.1163 24.1,24.1 0 0 1 0.1788,-0.1147 24.1,24.1 0 0 1 0.1798,-0.1127 24.1,24.1 0 0 1 0.1804,-0.1116 24.1,24.1 0 0 1 0.1819,-0.1101 24.1,24.1 0 0 1 0.1824,-0.1085 24.1,24.1 0 0 1 0.1834,-0.1064 24.1,24.1 0 0 1 0.1845,-0.1054 24.1,24.1 0 0 1 0.1855,-0.1034 24.1,24.1 0 0 1 0.1866,-0.1018 24.1,24.1 0 0 1 0.1871,-0.1002 24.1,24.1 0 0 1 0.1881,-0.0982 24.1,24.1 0 0 1 0.1891,-0.0971 24.1,24.1 0 0 1 0.1896,-0.0951 24.1,24.1 0 0 1 0.1907,-0.0935 24.1,24.1 0 0 1 0.1912,-0.092 24.1,24.1 0 0 1 0.1922,-0.0899 24.1,24.1 0 0 1 0.1933,-0.0884 24.1,24.1 0 0 1 0.1938,-0.0868 24.1,24.1 0 0 1 0.1943,-0.0853 24.1,24.1 0 0 1 0.1953,-0.0832 24.1,24.1 0 0 1 0.1958,-0.0816 24.1,24.1 0 0 1 0.1969,-0.0801 24.1,24.1 0 0 1 0.1974,-0.078 24.1,24.1 0 0 1 0.1979,-0.0765 24.1,24.1 0 0 1 0.199,-0.0744 24.1,24.1 0 0 1 0.1995,-0.0729 24.1,24.1 0 0 1 0.2,-0.0713 24.1,24.1 0 0 1 0.2005,-0.0692 24.1,24.1 0 0 1 0.2015,-0.0677 24.1,24.1 0 0 1 0.2021,-0.0656 24.1,24.1 0 0 1 0.202,-0.0641 24.1,24.1 0 0 1 0.2031,-0.062 24.1,24.1 0 0 1 0.2036,-0.0605 24.1,24.1 0 0 1 0.2041,-0.0589 24.1,24.1 0 0 1 0.2046,-0.0568 24.1,24.1 0 0 1 0.2052,-0.0548 24.1,24.1 0 0 1 0.2052,-0.0532 24.1,24.1 0 0 1 0.2062,-0.0517 24.1,24.1 0 0 1 0.2062,-0.0496 24.1,24.1 0 0 1 0.2072,-0.0481 24.1,24.1 0 0 1 0.2072,-0.0455 24.1,24.1 0 0 1 0.2077,-0.0444 24.1,24.1 0 0 1 0.2077,-0.0424 24.1,24.1 0 0 1 0.2088,-0.0403 24.1,24.1 0 0 1 0.2088,-0.0388 24.1,24.1 0 0 1 0.2088,-0.0367 24.1,24.1 0 0 1 0.2098,-0.0351 24.1,24.1 0 0 1 0.2098,-0.0331 24.1,24.1 0 0 1 0.2098,-0.031 24.1,24.1 0 0 1 0.2103,-0.0295 24.1,24.1 0 0 1 0.2103,-0.0274 24.1,24.1 0 0 1 0.2108,-0.0258 24.1,24.1 0 0 1 0.2108,-0.0238 24.1,24.1 0 0 1 0.2114,-0.0222 24.1,24.1 0 0 1 0.2114,-0.0202 24.1,24.1 0 0 1 0.2114,-0.0181 24.1,24.1 0 0 1 0.2119,-0.0165 24.1,24.1 0 0 1 0.2119,-0.0145 24.1,24.1 0 0 1 0.2119,-0.0124 24.1,24.1 0 0 1 0.2119,-0.0109 24.1,24.1 0 0 1 0.2124,-0.009 24.1,24.1 0 0 1 0.2124,-0.007 24.1,24.1 0 0 1 0.2119,-0.005 24.1,24.1 0 0 1 0.2124,-0.003 24.1,24.1 0 0 1 0.2124,-0.002 24.1,24.1 0 0 1 0.0568,0 24.1,24.1 0 0 1 0.2119,5.2e-4 24.1,24.1 0 0 1 0.2124,0.003 24.1,24.1 0 0 1 0.2124,0.005 24.1,24.1 0 0 1 0.2124,0.007 24.1,24.1 0 0 1 0.2119,0.008 24.1,24.1 0 0 1 0.2124,0.0103 24.1,24.1 0 0 1 0.2119,0.0119 24.1,24.1 0 0 1 0.2119,0.0139 24.1,24.1 0 0 1 0.2114,0.016 24.1,24.1 0 0 1 0.2119,0.0181 24.1,24.1 0 0 1 0.0315,0.003 24.1,24.1 0 0 0 -0.3095,-0.0284 v -36.99 c 0,-1.247 -0.9323,-2.251 -2.09,-2.251 z m 2.568,39.28 a 24.1,24.1 0 0 1 0.0114,10e-4 24.1,24.1 0 0 1 0.2114,0.0217 24.1,24.1 0 0 1 0.2108,0.0232 24.1,24.1 0 0 1 0.2108,0.0253 24.1,24.1 0 0 1 0.2108,0.0269 24.1,24.1 0 0 1 0.2103,0.0289 24.1,24.1 0 0 1 0.2098,0.031 24.1,24.1 0 0 1 0.2098,0.0326 24.1,24.1 0 0 1 0.2098,0.0346 24.1,24.1 0 0 1 0.2088,0.0362 24.1,24.1 0 0 1 0.2093,0.0382 24.1,24.1 0 0 1 0.2083,0.0398 24.1,24.1 0 0 1 0.2083,0.0419 24.1,24.1 0 0 1 0.2077,0.0434 24.1,24.1 0 0 1 0.2072,0.0455 24.1,24.1 0 0 1 0.2072,0.0475 24.1,24.1 0 0 1 0.2067,0.0491 24.1,24.1 0 0 1 0.0558,0.0139 v -31.13 c 0,-1.797 -1.295,-3.243 -2.902,-3.243 h -0.5121 z m 3.866,0.6961 a 24.1,24.1 0 0 1 0.1096,0.0289 24.1,24.1 0 0 1 0.2046,0.0563 24.1,24.1 0 0 1 0.2041,0.0584 24.1,24.1 0 0 1 0.2036,0.0599 24.1,24.1 0 0 1 0.2031,0.062 24.1,24.1 0 0 1 0.2026,0.0636 24.1,24.1 0 0 1 0.202,0.0651 24.1,24.1 0 0 1 0.2015,0.0672 24.1,24.1 0 0 1 0.2005,0.0687 24.1,24.1 0 0 1 0.2005,0.0708 24.1,24.1 0 0 1 0.1995,0.0723 24.1,24.1 0 0 1 0.199,0.0744 24.1,24.1 0 0 1 0.1984,0.076 24.1,24.1 0 0 1 0.1974,0.0775 24.1,24.1 0 0 1 0.1969,0.0791 24.1,24.1 0 0 1 0.1964,0.0816 24.1,24.1 0 0 1 0.1953,0.0827 24.1,24.1 0 0 1 0.1948,0.0847 24.1,24.1 0 0 1 0.1943,0.0863 24.1,24.1 0 0 1 0.1928,0.0879 24.1,24.1 0 0 1 0.1928,0.0894 24.1,24.1 0 0 1 0.1917,0.0915 24.1,24.1 0 0 1 0.1907,0.093 24.1,24.1 0 0 1 0.1902,0.0951 24.1,24.1 0 0 1 0.1891,0.0961 24.1,24.1 0 0 1 0.1881,0.0982 24.1,24.1 0 0 1 0.1876,0.0997 24.1,24.1 0 0 1 0.1866,0.1013 24.1,24.1 0 0 1 0.1855,0.1034 24.1,24.1 0 0 1 0.0269,0.015 l 19.78,-19.78 -0.6568,-0.6563 c -0.8288,-0.8288 -2.217,-0.775 -3.112,0.1204 l -18.59,18.59 v -26.37 c 0,-1.266 -0.944,-2.286 -2.116,-2.286 h -0.9281 z m 6.032,2.52 a 24.1,24.1 0 0 1 0.1189,0.0703 24.1,24.1 0 0 1 0.1819,0.1096 24.1,24.1 0 0 1 0.1809,0.1111 24.1,24.1 0 0 1 0.1798,0.1126 24.1,24.1 0 0 1 0.1793,0.1142 24.1,24.1 0 0 1 0.1778,0.1158 24.1,24.1 0 0 1 0.1767,0.1173 24.1,24.1 0 0 1 0.1762,0.1194 24.1,24.1 0 0 1 0.1747,0.1204 24.1,24.1 0 0 1 0.1736,0.122 24.1,24.1 0 0 1 0.1726,0.1235 24.1,24.1 0 0 1 0.1716,0.1251 24.1,24.1 0 0 1 0.1705,0.1266 24.1,24.1 0 0 1 0.1695,0.1282 24.1,24.1 0 0 1 0.168,0.1297 24.1,24.1 0 0 1 0.1669,0.1307 24.1,24.1 0 0 1 0.1183,0.0946 l 23.58,-23.58 -0.3622,-0.3623 c -1.137,-1.137 -3.075,-1.029 -4.345,0.2413 z m 3.229,2.275 a 24.1,24.1 0 0 1 0.005,0.004 24.1,24.1 0 0 1 0.1623,0.1369 24.1,24.1 0 0 1 0.1612,0.1385 24.1,24.1 0 0 1 0.1597,0.1395 24.1,24.1 0 0 1 0.1586,0.1411 24.1,24.1 0 0 1 0.1576,0.1426 24.1,24.1 0 0 1 0.1561,0.1437 24.1,24.1 0 0 1 0.1545,0.1452 24.1,24.1 0 0 1 0.154,0.1468 24.1,24.1 0 0 1 0.1519,0.1478 24.1,24.1 0 0 1 0.1509,0.1494 24.1,24.1 0 0 1 0.1499,0.1509 24.1,24.1 0 0 1 0.1483,0.1519 24.1,24.1 0 0 1 0.1468,0.153 24.1,24.1 0 0 1 0.1457,0.1545 24.1,24.1 0 0 1 0.1442,0.1561 24.1,24.1 0 0 1 0.1432,0.1571 24.1,24.1 0 0 1 0.1416,0.1581 24.1,24.1 0 0 1 0.14,0.1597 24.1,24.1 0 0 1 0.1385,0.1607 24.1,24.1 0 0 1 0.0946,0.1111 l 25.89,-25.89 c 0.8815,-0.8815 0.932,-2.25 0.1132,-3.069 -0.8189,-0.8189 -2.188,-0.7684 -3.069,0.1132 z m 3.27,3.318 a 24.1,24.1 0 0 1 0.007,0.008 24.1,24.1 0 0 1 0.1333,0.1659 24.1,24.1 0 0 1 0.1313,0.1664 24.1,24.1 0 0 1 0.1297,0.168 24.1,24.1 0 0 1 0.1287,0.169 24.1,24.1 0 0 1 0.1271,0.1705 24.1,24.1 0 0 1 0.1256,0.171 24.1,24.1 0 0 1 0.124,0.1726 24.1,24.1 0 0 1 0.1225,0.1731 24.1,24.1 0 0 1 0.1209,0.1747 24.1,24.1 0 0 1 0.1194,0.1757 24.1,24.1 0 0 1 0.1178,0.1767 24.1,24.1 0 0 1 0.1163,0.1772 24.1,24.1 0 0 1 0.1147,0.1788 24.1,24.1 0 0 1 0.1132,0.1798 24.1,24.1 0 0 1 0.1111,0.1804 24.1,24.1 0 0 1 0.1101,0.1819 24.1,24.1 0 0 1 0.032,0.0538 l 21.77,-21.77 c 1.27,-1.27 1.378,-3.208 0.2413,-4.345 l -0.3622,-0.3622 z m 2.22,3.248 a 24.1,24.1 0 0 1 0.0532,0.0925 24.1,24.1 0 0 1 0.1034,0.1855 24.1,24.1 0 0 1 0.1018,0.1866 24.1,24.1 0 0 1 0.1003,0.1871 24.1,24.1 0 0 1 0.0982,0.1881 24.1,24.1 0 0 1 0.0971,0.1891 24.1,24.1 0 0 1 0.0951,0.1896 24.1,24.1 0 0 1 0.0935,0.1907 24.1,24.1 0 0 1 0.092,0.1912 24.1,24.1 0 0 1 0.0899,0.1922 24.1,24.1 0 0 1 0.0884,0.1933 24.1,24.1 0 0 1 0.0868,0.1938 24.1,24.1 0 0 1 0.0853,0.1943 24.1,24.1 0 0 1 0.0832,0.1953 24.1,24.1 0 0 1 0.0816,0.1958 24.1,24.1 0 0 1 0.0801,0.1969 24.1,24.1 0 0 1 0.078,0.1974 24.1,24.1 0 0 1 0.0765,0.1979 24.1,24.1 0 0 1 0.0744,0.199 24.1,24.1 0 0 1 0.0729,0.1995 24.1,24.1 0 0 1 0.0713,0.2 24.1,24.1 0 0 1 0.0693,0.2005 24.1,24.1 0 0 1 0.0677,0.2015 24.1,24.1 0 0 1 0.0656,0.2021 24.1,24.1 0 0 1 0.0641,0.202 24.1,24.1 0 0 1 0.062,0.2031 24.1,24.1 0 0 1 0.0605,0.2036 24.1,24.1 0 0 1 0.0589,0.2041 24.1,24.1 0 0 1 0.0568,0.2046 24.1,24.1 0 0 1 0.0548,0.2052 24.1,24.1 0 0 1 0.0181,0.0682 h 28.15 v -0.9286 c 0,-1.172 -1.019,-2.116 -2.286,-2.116 h -26.74 l 18.66,-18.66 c 0.8954,-0.8954 0.9487,-2.284 0.1199,-3.112 l -0.6563,-0.6563 z m 2.494,6.302 a 24.1,24.1 0 0 1 0.0233,0.0977 24.1,24.1 0 0 1 0.0481,0.2072 24.1,24.1 0 0 1 0.0455,0.2072 24.1,24.1 0 0 1 0.0444,0.2077 24.1,24.1 0 0 1 0.0424,0.2077 24.1,24.1 0 0 1 0.0403,0.2088 24.1,24.1 0 0 1 0.0388,0.2088 24.1,24.1 0 0 1 0.0367,0.2088 24.1,24.1 0 0 1 0.0351,0.2098 24.1,24.1 0 0 1 0.0331,0.2098 24.1,24.1 0 0 1 0.031,0.2098 24.1,24.1 0 0 1 0.0294,0.2103 24.1,24.1 0 0 1 0.0274,0.2103 24.1,24.1 0 0 1 0.0258,0.2108 24.1,24.1 0 0 1 0.0238,0.2108 24.1,24.1 0 0 1 0.0222,0.2114 24.1,24.1 0 0 1 0.017,0.1772 h 33.59 v -0.5126 c 0,-1.608 -1.446,-2.902 -3.243,-2.902 z m 0.6036,3.892 a 24.1,24.1 0 0 1 0.0129,0.1917 24.1,24.1 0 0 1 0.0124,0.2119 24.1,24.1 0 0 1 0.0108,0.2119 24.1,24.1 0 0 1 0.009,0.2124 24.1,24.1 0 0 1 0.007,0.2124 24.1,24.1 0 0 1 0.005,0.2119 24.1,24.1 0 0 1 0.003,0.2124 24.1,24.1 0 0 1 0.002,0.2124 24.1,24.1 0 0 1 0,0.0568 24.1,24.1 0 0 1 -5.2e-4,0.2119 24.1,24.1 0 0 1 -0.003,0.2124 24.1,24.1 0 0 1 -0.005,0.2124 24.1,24.1 0 0 1 -0.007,0.2124 24.1,24.1 0 0 1 -0.008,0.2119 24.1,24.1 0 0 1 -0.0103,0.2124 24.1,24.1 0 0 1 -0.0119,0.2119 24.1,24.1 0 0 1 -0.0139,0.2119 24.1,24.1 0 0 1 -0.016,0.2114 24.1,24.1 0 0 1 -0.0181,0.2119 24.1,24.1 0 0 1 -0.0191,0.2114 24.1,24.1 0 0 1 -0.0119,0.1152 h 36.94 c 1.247,0 2.251,-0.9323 2.251,-2.09 0,-1.158 -1.004,-2.09 -2.251,-2.09 z m -0.1163,4.659 a 24.1,24.1 0 0 1 -0.005,0.0398 24.1,24.1 0 0 1 -0.0269,0.2108 24.1,24.1 0 0 1 -0.0289,0.2103 24.1,24.1 0 0 1 -0.031,0.2098 24.1,24.1 0 0 1 -0.0326,0.2098 24.1,24.1 0 0 1 -0.0346,0.2098 24.1,24.1 0 0 1 -0.0362,0.2088 24.1,24.1 0 0 1 -0.0382,0.2093 24.1,24.1 0 0 1 -0.0398,0.2083 24.1,24.1 0 0 1 -0.0419,0.2082 24.1,24.1 0 0 1 -0.0434,0.2077 24.1,24.1 0 0 1 -0.0455,0.2072 24.1,24.1 0 0 1 -0.0475,0.2072 24.1,24.1 0 0 1 -0.0491,0.2067 24.1,24.1 0 0 1 -0.0512,0.2062 24.1,24.1 0 0 1 -0.0527,0.2052 24.1,24.1 0 0 1 -0.0543,0.2057 24.1,24.1 0 0 1 -0.0119,0.0434 h 31.19 c 1.797,0 3.243,-1.295 3.243,-2.902 v -0.5121 z m -0.7984,3.866 a 24.1,24.1 0 0 1 -0.0346,0.1173 24.1,24.1 0 0 1 -0.062,0.2031 24.1,24.1 0 0 1 -0.0636,0.2026 24.1,24.1 0 0 1 -0.0651,0.202 24.1,24.1 0 0 1 -0.0672,0.2015 24.1,24.1 0 0 1 -0.0687,0.2005 24.1,24.1 0 0 1 -0.0708,0.2005 24.1,24.1 0 0 1 -0.0724,0.1995 24.1,24.1 0 0 1 -0.0744,0.199 24.1,24.1 0 0 1 -0.076,0.1984 24.1,24.1 0 0 1 -0.0775,0.1974 24.1,24.1 0 0 1 -0.0791,0.1969 24.1,24.1 0 0 1 -0.0811,0.1964 24.1,24.1 0 0 1 -0.0832,0.1953 24.1,24.1 0 0 1 -0.0847,0.1948 24.1,24.1 0 0 1 -0.0863,0.1943 24.1,24.1 0 0 1 -0.0879,0.1928 24.1,24.1 0 0 1 -0.0894,0.1928 24.1,24.1 0 0 1 -0.0915,0.1917 24.1,24.1 0 0 1 -0.093,0.1907 24.1,24.1 0 0 1 -0.0951,0.1902 24.1,24.1 0 0 1 -0.0961,0.1891 24.1,24.1 0 0 1 -0.0982,0.1881 24.1,24.1 0 0 1 -0.0997,0.1876 24.1,24.1 0 0 1 -0.1013,0.1866 24.1,24.1 0 0 1 -0.1034,0.1855 24.1,24.1 0 0 1 -0.1044,0.185 24.1,24.1 0 0 1 -0.1044,0.1804 l 19.96,19.96 0.6568,-0.6563 c 0.8288,-0.8288 0.775,-2.217 -0.1204,-3.112 l -18.51,-18.51 h 26.19 c 1.266,0 2.286,-0.944 2.286,-2.116 v -0.9281 z m -2.55,5.759 a 24.1,24.1 0 0 1 -0.0915,0.1494 24.1,24.1 0 0 1 -0.1127,0.1798 24.1,24.1 0 0 1 -0.1142,0.1793 24.1,24.1 0 0 1 -0.1158,0.1778 24.1,24.1 0 0 1 -0.1173,0.1767 24.1,24.1 0 0 1 -0.1194,0.1762 24.1,24.1 0 0 1 -0.1204,0.1747 24.1,24.1 0 0 1 -0.122,0.1736 24.1,24.1 0 0 1 -0.1235,0.1726 24.1,24.1 0 0 1 -0.125,0.1716 24.1,24.1 0 0 1 -0.1266,0.1705 24.1,24.1 0 0 1 -0.1282,0.1695 24.1,24.1 0 0 1 -0.1297,0.168 24.1,24.1 0 0 1 -0.1308,0.1669 24.1,24.1 0 0 1 -0.1328,0.1659 24.1,24.1 0 0 1 -0.1338,0.1648 24.1,24.1 0 0 1 -0.0667,0.0806 l 23.8,23.8 0.3622,-0.3622 c 1.137,-1.137 1.03,-3.075 -0.2408,-4.345 z m -2.32,3.185 a 24.1,24.1 0 0 1 -0.0346,0.0398 24.1,24.1 0 0 1 -0.1395,0.1597 24.1,24.1 0 0 1 -0.1411,0.1586 24.1,24.1 0 0 1 -0.1426,0.1576 24.1,24.1 0 0 1 -0.1437,0.1561 24.1,24.1 0 0 1 -0.1452,0.1545 24.1,24.1 0 0 1 -0.1468,0.154 24.1,24.1 0 0 1 -0.1478,0.1519 24.1,24.1 0 0 1 -0.1494,0.1509 24.1,24.1 0 0 1 -0.1509,0.1499 24.1,24.1 0 0 1 -0.1519,0.1483 24.1,24.1 0 0 1 -0.153,0.1468 24.1,24.1 0 0 1 -0.1545,0.1457 24.1,24.1 0 0 1 -0.1561,0.1442 24.1,24.1 0 0 1 -0.1571,0.1431 24.1,24.1 0 0 1 -0.1581,0.1416 24.1,24.1 0 0 1 -0.1597,0.14 24.1,24.1 0 0 1 -0.1607,0.1385 24.1,24.1 0 0 1 -0.1618,0.1375 24.1,24.1 0 0 1 -0.1633,0.1354 24.1,24.1 0 0 1 -0.077,0.0631 l 26.17,26.17 c 0.8815,0.8815 2.25,0.932 3.069,0.1132 0.8189,-0.8189 0.7684,-2.188 -0.1132,-3.07 z m -3.37,3.218 a 24.1,24.1 0 0 1 -0.0444,0.0351 24.1,24.1 0 0 1 -0.168,0.1297 24.1,24.1 0 0 1 -0.169,0.1287 24.1,24.1 0 0 1 -0.1705,0.1271 24.1,24.1 0 0 1 -0.171,0.1256 24.1,24.1 0 0 1 -0.1726,0.124 24.1,24.1 0 0 1 -0.1731,0.1225 24.1,24.1 0 0 1 -0.1747,0.1209 24.1,24.1 0 0 1 -0.1757,0.1194 24.1,24.1 0 0 1 -0.1767,0.1178 24.1,24.1 0 0 1 -0.1772,0.1163 24.1,24.1 0 0 1 -0.1788,0.1147 24.1,24.1 0 0 1 -0.1798,0.1132 24.1,24.1 0 0 1 -0.1804,0.1111 24.1,24.1 0 0 1 -0.1819,0.1101 24.1,24.1 0 0 1 -0.1824,0.1085 24.1,24.1 0 0 1 -0.1834,0.1064 24.1,24.1 0 0 1 -0.0238,0.0134 l 22.09,22.09 c 1.27,1.27 3.208,1.377 4.345,0.2408 l 0.3622,-0.3622 z m -3.293,2.175 a 24.1,24.1 0 0 1 -0.1235,0.0672 24.1,24.1 0 0 1 -0.1871,0.1002 24.1,24.1 0 0 1 -0.1881,0.0982 24.1,24.1 0 0 1 -0.1891,0.0972 24.1,24.1 0 0 1 -0.1896,0.0951 24.1,24.1 0 0 1 -0.1907,0.0935 24.1,24.1 0 0 1 -0.1912,0.092 24.1,24.1 0 0 1 -0.1922,0.0899 24.1,24.1 0 0 1 -0.1933,0.0884 24.1,24.1 0 0 1 -0.1938,0.0868 24.1,24.1 0 0 1 -0.1943,0.0853 24.1,24.1 0 0 1 -0.1953,0.0832 24.1,24.1 0 0 1 -0.1959,0.0816 24.1,24.1 0 0 1 -0.1969,0.0801 24.1,24.1 0 0 1 -0.1974,0.078 24.1,24.1 0 0 1 -0.1979,0.0765 24.1,24.1 0 0 1 -0.199,0.0744 24.1,24.1 0 0 1 -0.1995,0.0729 24.1,24.1 0 0 1 -0.2,0.0713 24.1,24.1 0 0 1 -0.2005,0.0692 24.1,24.1 0 0 1 -0.2015,0.0677 24.1,24.1 0 0 1 -0.2021,0.0656 24.1,24.1 0 0 1 -0.202,0.0641 24.1,24.1 0 0 1 -0.2031,0.062 24.1,24.1 0 0 1 -0.2036,0.0605 24.1,24.1 0 0 1 -0.2041,0.0589 24.1,24.1 0 0 1 -0.2046,0.0568 24.1,24.1 0 0 1 -0.2052,0.0548 24.1,24.1 0 0 1 -0.0925,0.0238 v 28.05 h 0.9286 c 1.172,0 2.116,-1.019 2.116,-2.286 v -26.15 l 18.67,18.67 c 0.8954,0.8954 2.284,0.9487 3.112,0.1199 l 0.6563,-0.6568 z m -5.986,2.308 a 24.1,24.1 0 0 1 -0.0734,0.0176 24.1,24.1 0 0 1 -0.2072,0.0481 24.1,24.1 0 0 1 -0.2072,0.0455 24.1,24.1 0 0 1 -0.2077,0.0444 24.1,24.1 0 0 1 -0.2077,0.0424 24.1,24.1 0 0 1 -0.2088,0.0403 24.1,24.1 0 0 1 -0.2088,0.0388 24.1,24.1 0 0 1 -0.2088,0.0367 24.1,24.1 0 0 1 -0.2098,0.0351 24.1,24.1 0 0 1 -0.2098,0.0331 24.1,24.1 0 0 1 -0.2098,0.031 24.1,24.1 0 0 1 -0.2103,0.0295 24.1,24.1 0 0 1 -0.2103,0.0274 24.1,24.1 0 0 1 -0.2108,0.0258 24.1,24.1 0 0 1 -0.2108,0.0238 24.1,24.1 0 0 1 -0.2114,0.0222 24.1,24.1 0 0 1 -0.2015,0.0191 v 33.78 h 0.5126 c 1.608,0 2.902,-1.446 2.902,-3.243 z"
     color="#000000"
     color-rendering="auto"
     dominant-baseline="auto"
     fill="url(#linearGradient9329)"
     fill-rule="evenodd"
     image-rendering="auto"
     shape-rendering="auto"
     solid-color="#000000"
     stop-color="#000000"
     style="font-variant-ligatures:normal;font-variant-position:normal;font-variant-caps:normal;font-variant-numeric:normal;font-variant-alternates:normal;font-variant-east-asian:normal;font-feature-settings:normal;font-variation-settings:normal;text-indent:0;text-decoration:none;text-decoration-line:none;text-decoration-style:solid;text-decoration-color:#000000;text-transform:none;text-orientation:mixed;white-space:normal;shape-padding:0;shape-margin:0;inline-size:0;isolation:auto;mix-blend-mode:normal;fill:url(#linearGradient9329);stroke-width:1.00013;stroke-miterlimit:4;stroke-dasharray:none;paint-order:stroke fill markers"
     id="path11" />
</svg>
